<?xml version="1.0" encoding="UTF-8" standalone="no"?>
<svg width="825px" height="795px" viewBox="0 0 825 795" version="1.1" xmlns="http://www.w3.org/2000/svg" xmlns:xlink="http://www.w3.org/1999/xlink">
    <!-- Generator: sketchtool 39.1 (31720) - http://www.bohemiancoding.com/sketch -->
    <title>B09B9E46-CA4D-4948-A3A2-B0F3B296ABB4</title>
    <desc>Created with sketchtool.</desc>
    <defs>
        <polygon id="path-1" points="502 717.021385 529.616245 717.021387 555.077422 692.479322 554.997803 652 502 652"></polygon>
        <mask id="mask-2" maskContentUnits="userSpaceOnUse" maskUnits="objectBoundingBox" x="-1" y="-1" width="55.0774222" height="67.0213867">
            <rect x="501" y="651" width="55.0774222" height="67.0213867" fill="white"></rect>
            <use xlink:href="#path-1" fill="black"></use>
        </mask>
        <polygon id="path-3" points="657.971982 386.049403 685.588227 386.049404 711.049404 361.50734 710.969785 321.028018 657.971982 321.028018"></polygon>
        <mask id="mask-4" maskContentUnits="userSpaceOnUse" maskUnits="objectBoundingBox" x="-1" y="-1" width="55.0774222" height="67.0213867">
            <rect x="656.971982" y="320.028018" width="55.0774222" height="67.0213867" fill="white"></rect>
            <use xlink:href="#path-3" fill="black"></use>
        </mask>
        <polygon id="path-5" points="128.544252 383.544251 155.270603 383.544252 187.455747 343.45647 187.455748 319.544252 128.544252 319.544252"></polygon>
        <mask id="mask-6" maskContentUnits="userSpaceOnUse" maskUnits="objectBoundingBox" x="-1" y="-1" width="60.9114961" height="66">
            <rect x="127.544252" y="318.544252" width="60.9114961" height="66" fill="white"></rect>
            <use xlink:href="#path-5" fill="black"></use>
        </mask>
        <polygon id="path-7" points="128.544252 445.544251 155.270603 445.544252 187.455747 405.45647 187.455748 381.544252 128.544252 381.544252"></polygon>
        <mask id="mask-8" maskContentUnits="userSpaceOnUse" maskUnits="objectBoundingBox" x="-1" y="-1" width="60.9114961" height="66">
            <rect x="127.544252" y="380.544252" width="60.9114961" height="66" fill="white"></rect>
            <use xlink:href="#path-7" fill="black"></use>
        </mask>
    </defs>
    <g id="Page-2" stroke="none" stroke-width="1" fill="none" fill-rule="evenodd">
        <g id="2-Жилой-дом-№2.-Корпус-А.(16-эт)----2-(29.04.16)" transform="translate(-281.000000, -83.000000)">
            <g id="Group" transform="translate(281.000000, 83.000000)">
                <path d="M455,315 L457,313 L457,359 L455,357 L460,357 L458,359 L458,313 L460,315 L455,315 Z M460,313 L460,359 L455,359 L455,313 L460,313 Z M418,307 L497,307 L497,309 L418,309 L418,307 Z M418,314 L455,314 L455,316 L418,316 L418,314 Z M460,314 L497,314 L497,316 L460,316 L460,314 Z M418,321 L455,321 L455,323 L418,323 L418,321 Z M460,321 L497,321 L497,323 L460,323 L460,321 Z M418,328 L455,328 L455,330 L418,330 L418,328 Z M418,335 L455,335 L455,337 L418,337 L418,335 Z M460,328 L497,328 L497,330 L460,330 L460,328 Z M460,335 L497,335 L497,337 L460,337 L460,335 Z M418,342 L455,342 L455,344 L418,344 L418,342 Z M460,342 L497,342 L497,344 L460,344 L460,342 Z M418,349 L455,349 L455,351 L418,351 L418,349 Z M460,349 L497,349 L497,351 L460,351 L460,349 Z M418,356 L455,356 L455,358 L418,358 L418,356 Z M460,356 L497,356 L497,358 L460,358 L460,356 Z M418,363 L497,363 L497,365 L418,365 L418,363 Z" id="Combined-Shape" fill="#252525"></path>
                <path d="M276,115 L278,113 L278,159 L276,157 L281,157 L279,159 L279,113 L281,115 L276,115 Z M281,113 L281,159 L276,159 L276,113 L281,113 Z M239,107 L318,107 L318,109 L239,109 L239,107 Z M239,114 L276,114 L276,116 L239,116 L239,114 Z M281,114 L318,114 L318,116 L281,116 L281,114 Z M239,121 L276,121 L276,123 L239,123 L239,121 Z M281,121 L318,121 L318,123 L281,123 L281,121 Z M239,128 L276,128 L276,130 L239,130 L239,128 Z M239,135 L276,135 L276,137 L239,137 L239,135 Z M281,128 L318,128 L318,130 L281,130 L281,128 Z M281,135 L318,135 L318,137 L281,137 L281,135 Z M239,142 L276,142 L276,144 L239,144 L239,142 Z M281,142 L318,142 L318,144 L281,144 L281,142 Z M239,149 L276,149 L276,151 L239,151 L239,149 Z M281,149 L318,149 L318,151 L281,151 L281,149 Z M239,156 L276,156 L276,158 L239,158 L239,156 Z M281,156 L318,156 L318,158 L281,158 L281,156 Z M239,163 L318,163 L318,165 L239,165 L239,163 Z" id="Combined-Shape-Copy-17" fill="#252525" transform="translate(278.500000, 136.000000) scale(1, -1) translate(-278.500000, -136.000000) "></path>
                <path d="M94.5,56 L177,56 L177,71 L102,71 L102,155 L87,155 L87,56 L94.5,56 Z" id="Combined-Shape" fill="#252525"></path>
                <rect id="Rectangle-2-Copy-4" fill="#252525" x="87" y="190" width="15" height="20"></rect>
                <path d="M43,210 L58,210 L58,229 L43,229 L43,210 Z M102,195 L102,210 L43,210 L43,195 L102,195 Z" id="Combined-Shape" fill="#252525"></path>
                <rect id="Rectangle-2-Copy-9" fill="#252525" x="43" y="273" width="15" height="43"></rect>
                <rect id="Rectangle-2-Copy-11" fill="#252525" x="43" y="360" width="15" height="44"></rect>
                <rect id="Rectangle-2-Copy-13" fill="#252525" x="43" y="448" width="15" height="44"></rect>
                <rect id="Rectangle-2-Copy-15" fill="#252525" x="43" y="536" width="15" height="33"></rect>
                <rect id="Rectangle-2-Copy-17" fill="#252525" x="86" y="554" width="15" height="19"></rect>
                <rect id="Rectangle-2-Copy-19" fill="#252525" x="86" y="609" width="15" height="99"></rect>
                <rect id="Rectangle-2-Copy-23" fill="#252525" x="225" y="693" width="15" height="59"></rect>
                <rect id="Rectangle-2-Copy-16" fill="#252525" transform="translate(72.000000, 561.500000) rotate(-270.000000) translate(-72.000000, -561.500000) " x="64.5" y="532.5" width="15" height="58"></rect>
                <rect id="Rectangle-2-Copy-20" fill="#252525" transform="translate(131.500000, 700.500000) rotate(-270.000000) translate(-131.500000, -700.500000) " x="124" y="655" width="15" height="91"></rect>
                <rect id="Rectangle-2-Copy-22" fill="#252525" transform="translate(230.500000, 700.500000) rotate(-270.000000) translate(-230.500000, -700.500000) " x="223" y="691" width="15" height="19"></rect>
                <rect id="Rectangle-2-Copy-24" fill="#252525" transform="translate(242.000000, 744.500000) rotate(-270.000000) translate(-242.000000, -744.500000) " x="234.5" y="727.5" width="15" height="34"></rect>
                <rect id="Rectangle-2-Copy-26" fill="#252525" transform="translate(325.000000, 744.500000) rotate(-270.000000) translate(-325.000000, -744.500000) " x="317.5" y="722.5" width="15" height="44"></rect>
                <rect id="Rectangle-2-Copy-28" fill="#252525" transform="translate(412.500000, 744.500000) rotate(-270.000000) translate(-412.500000, -744.500000) " x="405" y="723" width="15" height="43"></rect>
                <rect id="Rectangle-2-Copy-30" fill="#252525" transform="translate(499.500000, 744.500000) rotate(-270.000000) translate(-499.500000, -744.500000) " x="492" y="723" width="15" height="43"></rect>
                <rect id="Rectangle-2-Copy-32" fill="#252525" transform="translate(582.000000, 744.500000) rotate(-270.000000) translate(-582.000000, -744.500000) " x="574.5" y="727.5" width="15" height="34"></rect>
                <rect id="Rectangle-2-Copy-33" fill="#252525" transform="translate(593.500000, 700.500000) rotate(-270.000000) translate(-593.500000, -700.500000) " x="586" y="691" width="15" height="19"></rect>
                <rect id="Rectangle-2-Copy-35" fill="#252525" transform="translate(688.500000, 700.500000) rotate(-270.000000) translate(-688.500000, -700.500000) " x="681" y="651" width="15" height="99"></rect>
                <rect id="Rectangle-2-Copy-32" fill="#252525" x="584" y="693" width="15" height="59"></rect>
                <rect id="Rectangle-2-Copy-36" fill="#252525" x="723" y="617" width="15" height="91"></rect>
                <rect id="Rectangle-2-Copy-38" fill="#252525" x="723" y="554" width="15" height="19"></rect>
                <rect id="Rectangle-2-Copy-40" fill="#252525" x="767" y="535" width="15" height="34"></rect>
                <rect id="Rectangle-2-Copy-42" fill="#252525" x="767" y="448" width="15" height="43"></rect>
                <rect id="Rectangle-2-Copy-44" fill="#252525" x="767" y="361" width="15" height="43"></rect>
                <rect id="Rectangle-2-Copy-46" fill="#252525" x="767" y="273" width="15" height="44"></rect>
                <rect id="Rectangle-2-Copy-46" fill="#252525" x="767" y="195" width="15" height="34"></rect>
                <rect id="Rectangle-2-Copy-47" fill="#252525" x="723" y="191" width="15" height="19"></rect>
                <rect id="Rectangle-2-Copy-49" fill="#252525" x="723" y="56" width="15" height="99"></rect>
                <rect id="Rectangle-2-Copy-53" fill="#252525" x="585" y="12" width="15" height="59"></rect>
                <rect id="Rectangle-2-Copy-46" fill="#252525" transform="translate(752.500000, 202.500000) rotate(-270.000000) translate(-752.500000, -202.500000) " x="745" y="173" width="15" height="59"></rect>
                <rect id="Rectangle-2-Copy-50" fill="#252525" transform="translate(693.000000, 63.500000) rotate(-270.000000) translate(-693.000000, -63.500000) " x="685.5" y="18.5" width="15" height="90"></rect>
                <rect id="Rectangle-2-Copy-52" fill="#252525" transform="translate(594.500000, 63.500000) rotate(-270.000000) translate(-594.500000, -63.500000) " x="587" y="54" width="15" height="19"></rect>
                <rect id="Rectangle-2-Copy-54" fill="#252525" transform="translate(582.500000, 19.500000) rotate(-270.000000) translate(-582.500000, -19.500000) " x="575" y="2" width="15" height="35"></rect>
                <rect id="Rectangle-2-Copy-56" fill="#252525" transform="translate(500.000000, 19.500000) rotate(-270.000000) translate(-500.000000, -19.500000) " x="492.5" y="-1.5" width="15" height="42"></rect>
                <rect id="Rectangle-2-Copy-58" fill="#252525" transform="translate(418.500000, 19.500000) rotate(-270.000000) translate(-418.500000, -19.500000) " x="411" y="3" width="15" height="33"></rect>
                <rect id="Rectangle-2-Copy-59" fill="#252525" transform="translate(390.000000, 44.500000) rotate(-270.000000) translate(-390.000000, -44.500000) " x="382.5" y="17.5" width="15" height="54"></rect>
                <rect id="Rectangle-2-Copy-60" fill="#252525" transform="translate(307.000000, 44.500000) rotate(-270.000000) translate(-307.000000, -44.500000) " x="299.5" y="24.5" width="15" height="40"></rect>
                <path d="M206,138.5 L206,136 L102,136 L102,141 L201,141 L201,168 L206,168 L206,138.5 Z" id="Combined-Shape" fill="#252525"></path>
                <path d="M203.5,210 L206,210 L206,188 L201,188 L201,205 L102,205 L102,210 L203.5,210 Z M141,210 L146,210 L146,215 L141,215 L141,210 Z" id="Combined-Shape" fill="#252525"></path>
                <path d="M240,52 L251,52 L251,37 L240,37 L240,12 L225,12 L225,56 L221,56 L221,71 L232.5,71 L240,71 L240,52 Z" id="Combined-Shape" fill="#252525"></path>
                <rect id="Rectangle-9" fill="#252525" x="240" y="205" width="87" height="5"></rect>
                <rect id="Rectangle-9-Copy" fill="#252525" x="363" y="205" width="124" height="5"></rect>
                <path d="M648.5,295 L646,295 L646,210 L507,210 L507,205 L683,205 L683,210 L651,210 L651,290 L767,290 L767,295 L648.5,295 Z M703,205 L723,205 L723,210 L703,210 L703,205 Z" id="Combined-Shape" fill="#252525"></path>
                <rect id="Rectangle-10" fill="#252525" x="589" y="326" width="17" height="5"></rect>
                <rect id="Rectangle-10-Copy-9" fill="#252525" x="589" y="432" width="17" height="5"></rect>
                <rect id="Rectangle-10-Copy-7" fill="#252525" x="589" y="379" width="178" height="5"></rect>
                <path d="M641,351 L641,331 L648,331 L648,351 L641,351 Z M641,356 L641,379 L636,379 L636,331 L626,331 L626,326 L653,326 L653,328.5 L653,379 L648,379 L648,356 L641,356 Z M651,321 L651,326 L646,326 L646,321 L651,321 Z" id="Combined-Shape" fill="#252525"></path>
                <path d="M670,414 L670,432 L677,432 L677,414 L670,414 Z M670,409 L670,384 L665,384 L665,432 L662,432 L662,437 L665,437 L665,443 L670,443 L670,437 L679.5,437 L682,437 L682,384 L677,384 L677,409 L670,409 Z" id="Combined-Shape" fill="#252525"></path>
                <rect id="Rectangle-10-Copy-15" fill="#252525" transform="translate(667.500000, 468.500000) rotate(-270.000000) translate(-667.500000, -468.500000) " x="662" y="466" width="11" height="5"></rect>
                <rect id="Rectangle-10-Copy-8" fill="#252525" transform="translate(638.500000, 410.500000) rotate(-270.000000) translate(-638.500000, -410.500000) " x="612" y="408" width="53" height="5"></rect>
                <rect id="Rectangle-10-Copy-17" fill="#252525" transform="translate(628.500000, 488.500000) rotate(-270.000000) translate(-628.500000, -488.500000) " x="609" y="486" width="39" height="5"></rect>
                <rect id="Rectangle-10-Copy-18" fill="#252525" transform="translate(628.500000, 540.750000) rotate(-270.000000) translate(-628.500000, -540.750000) " x="615" y="538.25" width="27" height="5"></rect>
                <rect id="Rectangle-10-Copy-5" fill="#252525" transform="translate(648.500000, 298.000000) rotate(-270.000000) translate(-648.500000, -298.000000) " x="645.5" y="295.5" width="6" height="5"></rect>
                <rect id="Rectangle-10-Copy-10" fill="#252525" x="626" y="432" width="16" height="5"></rect>
                <rect id="Rectangle-10-Copy-16" fill="#252525" x="626" y="469" width="141" height="5"></rect>
                <polygon id="Combined-Shape" fill="#252525" transform="translate(803.500000, 289.500000) scale(1, -1) translate(-803.500000, -289.500000) " points="792 289 813.325245 289 819.828438 379 782 379 782 384 825 384 818 284 797 284 797 195 782 195 782 200 792 200"></polygon>
                <rect id="Rectangle-10-Copy-19" fill="#252525" x="573" y="554" width="152" height="5"></rect>
                <rect id="Rectangle-10-Copy-31" fill="#252525" x="584" y="589" width="75" height="5"></rect>
                <rect id="Rectangle-10-Copy-21" fill="#252525" x="324" y="603" width="59" height="5"></rect>
                <path d="M237.5,647 L244,647 L244,652 L240,652 L240,693 L235,693 L235,647 L237.5,647 Z" id="Combined-Shape" fill="#252525"></path>
                <rect id="Rectangle-10-Copy-22" fill="#252525" x="403" y="603" width="12" height="5"></rect>
                <rect id="Rectangle-10-Copy-23" fill="#252525" x="415" y="647" width="4" height="5"></rect>
                <rect id="Rectangle-10-Copy-20" fill="#252525" x="441" y="554" width="112" height="5"></rect>
                <rect id="Rectangle-10-Copy-32" fill="#252525" x="269" y="554" width="152" height="5"></rect>
                <rect id="Rectangle-10-Copy-33" fill="#252525" x="167" y="554" width="82" height="5"></rect>
                <rect id="Rectangle-10-Copy-35" fill="#252525" x="101" y="554" width="46" height="5"></rect>
                <rect id="Rectangle-10-Copy-38" fill="#252525" x="58" y="467" width="198" height="5"></rect>
                <path d="M296,505 L289,505 L289,468.166667 L296,468.166667 L296,505 Z M301,505 L307,505 L307,510 L284,510 L284,507.5 L284,254 L286.5,254 L307,254 L307,259 L301,259 L301,505 Z M296,259 L289,259 L289,296 L296,296 L296,259 Z M296,301 L289,301 L289,337.666667 L296,337.666667 L296,301 Z M296,342.666667 L289,342.666667 L289,379.5 L296,379.5 L296,342.666667 Z M296,384.5 L289,384.5 L289,421.333333 L296,421.333333 L296,384.5 Z M296,426.333333 L289,426.333333 L289,463.166667 L296,463.166667 L296,426.333333 Z" id="Combined-Shape" fill="#252525"></path>
                <path d="M537,316.75 L502,316.75 L502,259 L537,259 L537,316.75 Z M537,321.75 L502,321.75 L502,380 L537,380 L537,321.75 Z M537,385 L502,385 L502,442.25 L537,442.25 L537,385 Z M537,447.25 L502,447.25 L502,505 L537,505 L537,447.25 Z M539.5,510 L475,510 L475,505 L497,505 L497,259 L454,259 L454,254 L542,254 L542,256.5 L542,510 L539.5,510 Z" id="Combined-Shape" fill="#252525"></path>
                <path d="M479,361.035444 L479,320.333333 L481,320.333333 L478.541414,307 L476,320.333333 L478,320.333333 L478,361.035444 C476.303853,361.278059 475,362.736764 475,364.5 C475,366.432997 476.567003,368 478.5,368 C480.432997,368 482,366.432997 482,364.5 C482,362.736764 480.696147,361.278059 479,361.035444 Z" id="Combined-Shape" fill="#252525"></path>
                <path d="M300,161.035444 L300,120.333333 L302,120.333333 L299.541414,107 L297,120.333333 L299,120.333333 L299,161.035444 C297.303853,161.278059 296,162.736764 296,164.5 C296,166.432997 297.567003,168 299.5,168 C301.432997,168 303,166.432997 303,164.5 C303,162.736764 301.696147,161.278059 300,161.035444 Z" id="Combined-Shape-Copy-18" fill="#252525" transform="translate(299.500000, 137.500000) scale(1, -1) translate(-299.500000, -137.500000) "></path>
                <path d="M437,358.035444 L437,317.333333 L439,317.333333 L436.541414,304 L434,317.333333 L436,317.333333 L436,358.035444 C434.303853,358.278059 433,359.736764 433,361.5 C433,363.432997 434.567003,365 436.5,365 C438.432997,365 440,363.432997 440,361.5 C440,359.736764 438.696147,358.278059 437,358.035444 Z" id="Combined-Shape" fill="#252525" transform="translate(436.500000, 334.500000) scale(-1, -1) translate(-436.500000, -334.500000) "></path>
                <path d="M258,158.035444 L258,117.333333 L260,117.333333 L257.541414,104 L255,117.333333 L257,117.333333 L257,158.035444 C255.303853,158.278059 254,159.736764 254,161.5 C254,163.432997 255.567003,165 257.5,165 C259.432997,165 261,163.432997 261,161.5 C261,159.736764 259.696147,158.278059 258,158.035444 Z" id="Combined-Shape-Copy-19" fill="#252525" transform="translate(257.500000, 134.500000) scale(-1, 1) translate(-257.500000, -134.500000) "></path>
                <path d="M368,259 L413,259 L413,505 L368,505 L368,474 L363,474 L363,505 L343,505 L343,510 L439,510 L439,505 L418,505 L418,256.5 L418,254 L343,254 L343,259 L363,259 L363,308 L368,308 L368,259 Z M368,274 L413,274 L413,279 L368,279 L368,274 Z M368,344 L413,344 L413,349 L368,349 L368,344 Z M368,415 L413,415 L413,420 L368,420 L368,415 Z M363,338 L368,338 L368,376 L363,376 L363,338 Z M363,406 L368,406 L368,444 L363,444 L363,406 Z" id="Combined-Shape" fill="#252525"></path>
                <rect id="Rectangle-10-Copy-56" fill="#252525" x="413" y="407" width="88" height="5"></rect>
                <rect id="Rectangle-10-Copy-40" fill="#252525" x="58" y="380" width="226" height="5"></rect>
                <path d="M235,622 L101,622 L101,627 L237.5,627 L240,627 L240,548 L235,548 L235,622 Z" id="Combined-Shape" fill="#252525"></path>
                <rect id="Rectangle-10-Copy-39" fill="#252525" transform="translate(237.500000, 500.000000) rotate(-270.000000) translate(-237.500000, -500.000000) " x="209.5" y="497.5" width="56" height="5"></rect>
                <path d="M447.5,588 L498,588 L498,593 L450,593 L450,605 L445,605 L445,588 L447.5,588 Z M450,647 L470,647 L470,640 L450,640 L450,647 Z M445,647 L439,647 L439,652 L498,652 L498,647 L475,647 L475,640 L498,640 L498,635 L450,635 L450,625 L445,625 L445,647 Z" id="Combined-Shape" fill="#252525"></path>
                <path d="M275,647 L295,647 L295,640 L275,640 L275,647 Z M270,647 L264,647 L264,652 L323,652 L323,647 L300,647 L300,640 L323,640 L323,635 L275,635 L275,625 L270,625 L270,647 Z" id="Combined-Shape-Copy-11" fill="#252525"></path>
                <path d="M136,510 L156,510 L156,503 L136,503 L136,510 Z M131,510 L125,510 L125,515 L184,515 L184,510 L161,510 L161,503 L184,503 L184,498 L136,498 L136,488 L131,488 L131,510 Z" id="Combined-Shape-Copy-13" fill="#252525" transform="translate(154.500000, 501.500000) scale(-1, 1) rotate(-90.000000) translate(-154.500000, -501.500000) "></path>
                <path d="M185,423 L205,423 L205,416 L185,416 L185,423 Z M180,423 L174,423 L174,428 L233,428 L233,423 L210,423 L210,416 L233,416 L233,411 L185,411 L185,401 L180,401 L180,423 Z" id="Combined-Shape-Copy-15" fill="#252525" transform="translate(203.500000, 414.500000) scale(-1, 1) rotate(-90.000000) translate(-203.500000, -414.500000) "></path>
                <path d="M553.5,588 L503,588 L503,593 L551,593 L551,605 L556,605 L556,588 L553.5,588 Z M551,647 L531,647 L531,640 L551,640 L551,647 Z M553.5,652 L503,652 L503,647 L526,647 L526,640 L503,640 L503,635 L551,635 L551,625 L556,625 L556,652 L553.5,652 Z" id="Combined-Shape" fill="#252525"></path>
                <path d="M272.5,588 L323,588 L323,593 L275,593 L275,605 L270,605 L270,588 L272.5,588 Z" id="Combined-Shape-Copy-12" fill="#252525"></path>
                <path d="M176,486.5 L226.5,486.5 L226.5,491.5 L178.5,491.5 L178.5,510.5 L173.5,510.5 L173.5,486.5 L176,486.5 Z" id="Combined-Shape-Copy-14" fill="#252525" transform="translate(200.000000, 498.500000) scale(-1, 1) rotate(-90.000000) translate(-200.000000, -498.500000) "></path>
                <path d="M222.5,402 L273,402 L273,407 L225,407 L225,421 L220,421 L220,402 L222.5,402 Z" id="Combined-Shape-Copy-16" fill="#252525" transform="translate(246.500000, 411.500000) scale(-1, 1) rotate(-90.000000) translate(-246.500000, -411.500000) "></path>
                <path d="M185,359 L205,359 L205,352 L185,352 L185,359 Z M180,359 L174,359 L174,364 L233,364 L233,359 L210,359 L210,352 L233,352 L233,347 L185,347 L185,337 L180,337 L180,359 Z" id="Combined-Shape-Copy-15" fill="#252525" transform="translate(203.500000, 350.500000) scale(-1, -1) rotate(-90.000000) translate(-203.500000, -350.500000) "></path>
                <path d="M222.5,344 L273,344 L273,349 L225,349 L225,363 L220,363 L220,344 L222.5,344 Z" id="Combined-Shape-Copy-16" fill="#252525" transform="translate(246.500000, 353.500000) scale(-1, -1) rotate(-90.000000) translate(-246.500000, -353.500000) "></path>
                <rect id="Rectangle-9-Copy-4" fill="#252525" transform="translate(586.500000, 237.500000) rotate(-90.000000) translate(-586.500000, -237.500000) " x="554" y="235" width="65" height="5"></rect>
                <rect id="Rectangle-9-Copy-5" fill="#252525" transform="translate(586.500000, 381.000000) rotate(-90.000000) translate(-586.500000, -381.000000) " x="495.5" y="378.5" width="182" height="5"></rect>
                <rect id="Rectangle-9-Copy-6" fill="#252525" transform="translate(586.500000, 525.500000) rotate(-90.000000) translate(-586.500000, -525.500000) " x="553" y="523" width="67" height="5"></rect>
                <rect id="Rectangle-9-Copy-9" fill="#252525" transform="translate(500.500000, 647.000000) rotate(-90.000000) translate(-500.500000, -647.000000) " x="410.5" y="644.5" width="180" height="5"></rect>
                <rect id="Rectangle-9-Copy-11" fill="#252525" transform="translate(325.500000, 647.000000) rotate(-90.000000) translate(-325.500000, -647.000000) " x="235.5" y="644.5" width="180" height="5"></rect>
                <rect id="Rectangle-9-Copy-10" fill="#252525" transform="translate(412.500000, 670.000000) rotate(-90.000000) translate(-412.500000, -670.000000) " x="345.5" y="667.5" width="134" height="5"></rect>
                <rect id="Rectangle-9-Copy-12" fill="#252525" transform="translate(586.500000, 592.500000) rotate(-90.000000) translate(-586.500000, -592.500000) " x="549" y="590" width="75" height="5"></rect>
                <rect id="Rectangle-9-Copy-13" fill="#252525" transform="translate(656.500000, 641.000000) rotate(-90.000000) translate(-656.500000, -641.000000) " x="604.5" y="638.5" width="104" height="5"></rect>
                <rect id="Rectangle-2-Copy-58" fill="#252525" transform="translate(409.500000, 32.000000) rotate(-180.000000) translate(-409.500000, -32.000000) " x="402" y="12" width="15" height="40"></rect>
                <rect id="Rectangle-2-Copy-39" fill="#252525" transform="translate(752.500000, 561.500000) rotate(-270.000000) translate(-752.500000, -561.500000) " x="745" y="532" width="15" height="59"></rect>
                <g id="Окно-24*15" transform="translate(521.000000, 737.000000)" fill="#252525">
                    <path d="M23,1 L1,1 L1,14 L23,14 L23,1 Z M24,15 L0,15 L0,0 L24,0 L24,15 Z" id="Rectangle-2-Copy-27"></path>
                </g>
                <g id="Окно-24*15" transform="translate(454.000000, 737.000000)" fill="#252525">
                    <path d="M23,1 L1,1 L1,14 L23,14 L23,1 Z M24,15 L0,15 L0,0 L24,0 L24,15 Z" id="Rectangle-2-Copy-27"></path>
                </g>
                <g id="Окно-24*15" transform="translate(177.000000, 693.000000)" fill="#252525">
                    <path d="M23,1 L1,1 L1,14 L23,14 L23,1 Z M24,15 L0,15 L0,0 L24,0 L24,15 Z" id="Rectangle-2-Copy-27"></path>
                </g>
                <path d="M124.022997,234 L124.022988,232.013401 C124.09267,232.015691 124.151144,232.01802 124.217024,232.019871 C125.084022,232.044232 126.221952,232.005755 127.544929,231.852378 C129.527191,231.622567 131.480595,231.177011 133.298332,230.467854 C138.681033,228.367893 141.945452,224.408026 142.240829,218 L124,218 L124,216 L143.97821,216 L143.97821,217.032471 L144,217.032471 C144,224.970171 140.150479,229.906332 133.855894,232.362048 C131.902611,233.124085 129.823359,233.598346 127.718992,233.842313 C127.031687,233.921995 126.390536,233.972416 125.80525,234 L126,234 L126,235 L124,235 L124,234 L124.022997,234 Z M124,215 L126,215 L126,216 L124,216 L124,215 Z" id="Combined-Shape-Copy-20" fill="#252525" transform="translate(134.000000, 225.000000) scale(-1, 1) translate(-134.000000, -225.000000) "></path>
                <path d="M94.0229966,189 L94.0229883,187.013401 C94.0926696,187.015691 94.1511438,187.01802 94.2170235,187.019871 C95.0840221,187.044232 96.2219524,187.005755 97.5449294,186.852378 C99.5271914,186.622567 101.480595,186.177011 103.298332,185.467854 C108.681033,183.367893 111.945452,179.408026 112.240829,173 L94,173 L94,171 L113.97821,171 L113.97821,172.032471 L114,172.032471 C114,179.970171 110.150479,184.906332 103.855894,187.362048 C101.902611,188.124085 99.8233586,188.598346 97.7189922,188.842313 C97.0316872,188.921995 96.3905356,188.972416 95.8052499,189 L96,189 L96,190 L94,190 L94,189 L94.0229966,189 Z M94,170 L96,170 L96,171 L94,171 L94,170 Z" id="Combined-Shape-Copy-68" fill="#252525" transform="translate(104.000000, 180.000000) scale(1, -1) translate(-104.000000, -180.000000) "></path>
                <g id="Окно-15*15" transform="translate(87.000000, 155.000000)" fill="#252525">
                    <path d="M14,1 L1,1 L1,14 L14,14 L14,1 Z M15,15 L-1.13686838e-13,15 L-1.13686838e-13,0 L15,0 L15,15 Z" id="Rectangle-2-Copy-34"></path>
                </g>
                <path d="M173.022997,320 L173.022988,318.013401 C173.09267,318.015691 173.151144,318.01802 173.217024,318.019871 C174.084022,318.044232 175.221952,318.005755 176.544929,317.852378 C178.527191,317.622567 180.480595,317.177011 182.298332,316.467854 C187.681033,314.367893 190.945452,310.408026 191.240829,304 L173,304 L173,302 L192.97821,302 L192.97821,303.032471 L193,303.032471 C193,310.970171 189.150479,315.906332 182.855894,318.362048 C180.902611,319.124085 178.823359,319.598346 176.718992,319.842313 C176.031687,319.921995 175.390536,319.972416 174.80525,320 L175,320 L175,321 L173,321 L173,320 L173.022997,320 Z M173,301 L175,301 L175,302 L173,302 L173,301 Z" id="Combined-Shape-Copy-25" fill="#252525" transform="translate(183.000000, 311.000000) scale(-1, 1) translate(-183.000000, -311.000000) "></path>
                <path d="M173.022997,463 L173.022988,461.013401 C173.09267,461.015691 173.151144,461.01802 173.217024,461.019871 C174.084022,461.044232 175.221952,461.005755 176.544929,460.852378 C178.527191,460.622567 180.480595,460.177011 182.298332,459.467854 C187.681033,457.367893 190.945452,453.408026 191.240829,447 L173,447 L173,445 L192.97821,445 L192.97821,446.032471 L193,446.032471 C193,453.970171 189.150479,458.906332 182.855894,461.362048 C180.902611,462.124085 178.823359,462.598346 176.718992,462.842313 C176.031687,462.921995 175.390536,462.972416 174.80525,463 L175,463 L175,464 L173,464 L173,463 L173.022997,463 Z M173,444 L175,444 L175,445 L173,445 L173,444 Z" id="Combined-Shape-Copy-28" fill="#252525" transform="translate(183.000000, 454.000000) scale(-1, -1) translate(-183.000000, -454.000000) "></path>
                <path d="M184.022997,187 L184.022988,185.013401 C184.09267,185.015691 184.151144,185.01802 184.217024,185.019871 C185.084022,185.044232 186.221952,185.005755 187.544929,184.852378 C189.527191,184.622567 191.480595,184.177011 193.298332,183.467854 C198.681033,181.367893 201.945452,177.408026 202.240829,171 L184,171 L184,169 L203.97821,169 L203.97821,170.032471 L204,170.032471 C204,177.970171 200.150479,182.906332 193.855894,185.362048 C191.902611,186.124085 189.823359,186.598346 187.718992,186.842313 C187.031687,186.921995 186.390536,186.972416 185.80525,187 L186,187 L186,188 L184,188 L184,187 L184.022997,187 Z M184,168 L186,168 L186,169 L184,169 L184,168 Z" id="Combined-Shape-Copy-23" fill="#252525" transform="translate(194.000000, 178.000000) scale(-1, 1) translate(-194.000000, -178.000000) "></path>
                <path d="M218.022997,236 L218.022988,234.013401 C218.09267,234.015691 218.151144,234.01802 218.217024,234.019871 C219.084022,234.044232 220.221952,234.005755 221.544929,233.852378 C223.527191,233.622567 225.480595,233.177011 227.298332,232.467854 C232.681033,230.367893 235.945452,226.408026 236.240829,220 L218,220 L218,218 L237.97821,218 L237.97821,219.032471 L238,219.032471 C238,226.970171 234.150479,231.906332 227.855894,234.362048 C225.902611,235.124085 223.823359,235.598346 221.718992,235.842313 C221.031687,235.921995 220.390536,235.972416 219.80525,236 L220,236 L220,237 L218,237 L218,236 L218.022997,236 Z M218,217 L220,217 L220,218 L218,218 L218,217 Z" id="Combined-Shape-Copy-22" fill="#252525" transform="translate(228.000000, 227.000000) scale(-1, -1) translate(-228.000000, -227.000000) "></path>
                <path d="M167.022997,241 L167.022988,239.013401 C167.09267,239.015691 167.151144,239.01802 167.217024,239.019871 C168.084022,239.044232 169.221952,239.005755 170.544929,238.852378 C172.527191,238.622567 174.480595,238.177011 176.298332,237.467854 C181.681033,235.367893 184.945452,231.408026 185.240829,225 L167,225 L167,223 L186.97821,223 L186.97821,224.032471 L187,224.032471 C187,231.970171 183.150479,236.906332 176.855894,239.362048 C174.902611,240.124085 172.823359,240.598346 170.718992,240.842313 C170.031687,240.921995 169.390536,240.972416 168.80525,241 L169,241 L169,242 L167,242 L167,241 L167.022997,241 Z M167,222 L169,222 L169,223 L167,223 L167,222 Z" id="Combined-Shape-Copy-21" fill="#252525" transform="translate(177.000000, 232.000000) rotate(-90.000000) translate(-177.000000, -232.000000) "></path>
                <path d="M324.02106,257.184252 C324.005167,257.873289 323.953985,258.668504 323.852378,259.544929 C323.622567,261.527191 323.177011,263.480595 322.467854,265.298332 C320.367893,270.681033 316.408026,273.945452 310,274.240829 L310,256 L308,256 L308,275.97821 L309.032471,275.97821 L309.032471,276 C316.970171,276 321.906332,272.150479 324.362048,265.855894 C324.836078,264.640842 325.198752,263.377046 325.463906,262.088781 C327.764047,265.734263 332.74519,267.783478 340.027778,267.950253 L340.027778,268.00169 L342.028133,268.00169 L342.028133,256.00169 L340.027778,256.00169 L340.027778,265.950222 C330.957916,265.741322 326.258109,262.588333 326.022461,257.134919 C326.028434,256.826801 326.027787,256.538172 326.021718,256.270842 C326.023202,256.233507 326.024878,256.196074 326.026747,256.158543 L326.018806,256.158148 C326.016367,256.074235 326.014149,256.01986 326.013401,256.022997 L324.013401,256.022988 C324.015691,256.09267 324.01802,256.151144 324.019871,256.217024 C324.020221,256.229491 324.020559,256.242015 324.020883,256.254594 C324.009688,256.570315 324.009778,256.880225 324.02106,257.184252 Z M307,256 L307,258 L308,258 L308,256 L307,256 Z M343.028311,256.00169 L343.028311,258.00169 L342.028133,258.00169 L342.028133,256.00169 L343.028311,256.00169 Z" id="Combined-Shape" fill="#252525"></path>
                <path d="M324.02106,489.184252 C324.005167,489.873289 323.953985,490.668504 323.852378,491.544929 C323.622567,493.527191 323.177011,495.480595 322.467854,497.298332 C320.367893,502.681033 316.408026,505.945452 310,506.240829 L310,488 L308,488 L308,507.97821 L309.032471,507.97821 L309.032471,508 C316.970171,508 321.906332,504.150479 324.362048,497.855894 C324.836078,496.640842 325.198752,495.377046 325.463906,494.088781 C327.764047,497.734263 332.74519,499.783478 340.027778,499.950253 L340.027778,500.00169 L342.028133,500.00169 L342.028133,488.00169 L340.027778,488.00169 L340.027778,497.950222 C330.957916,497.741322 326.258109,494.588333 326.022461,489.134919 C326.028434,488.826801 326.027787,488.538172 326.021718,488.270842 C326.023202,488.233507 326.024878,488.196074 326.026747,488.158543 L326.018806,488.158148 C326.016367,488.074235 326.014149,488.01986 326.013401,488.022997 L324.013401,488.022988 C324.015691,488.09267 324.01802,488.151144 324.019871,488.217024 C324.020221,488.229491 324.020559,488.242015 324.020883,488.254594 C324.009688,488.570315 324.009778,488.880225 324.02106,489.184252 Z M307,488 L307,490 L308,490 L308,488 L307,488 Z M343.028311,488.00169 L343.028311,490.00169 L342.028133,490.00169 L342.028133,488.00169 L343.028311,488.00169 Z" id="Combined-Shape-Copy-60" fill="#252525" transform="translate(325.014155, 498.000000) scale(1, -1) translate(-325.014155, -498.000000) "></path>
                <path d="M435.02106,257.184252 C435.005167,257.873289 434.953985,258.668504 434.852378,259.544929 C434.622567,261.527191 434.177011,263.480595 433.467854,265.298332 C431.367893,270.681033 427.408026,273.945452 421,274.240829 L421,256 L419,256 L419,275.97821 L420.032471,275.97821 L420.032471,276 C427.970171,276 432.906332,272.150479 435.362048,265.855894 C435.836078,264.640842 436.198752,263.377046 436.463906,262.088781 C438.764047,265.734263 443.74519,267.783478 451.027778,267.950253 L451.027778,268.00169 L453.028133,268.00169 L453.028133,256.00169 L451.027778,256.00169 L451.027778,265.950222 C441.957916,265.741322 437.258109,262.588333 437.022461,257.134919 C437.028434,256.826801 437.027787,256.538172 437.021718,256.270842 C437.023202,256.233507 437.024878,256.196074 437.026747,256.158543 L437.018806,256.158148 C437.016367,256.074235 437.014149,256.01986 437.013401,256.022997 L435.013401,256.022988 C435.015691,256.09267 435.01802,256.151144 435.019871,256.217024 C435.020221,256.229491 435.020559,256.242015 435.020883,256.254594 C435.009688,256.570315 435.009778,256.880225 435.02106,257.184252 Z M418,256 L418,258 L419,258 L419,256 L418,256 Z M454.028311,256.00169 L454.028311,258.00169 L453.028133,258.00169 L453.028133,256.00169 L454.028311,256.00169 Z" id="Combined-Shape-Copy-59" fill="#252525"></path>
                <path d="M456.02106,508.184252 C456.005167,508.873289 455.953985,509.668504 455.852378,510.544929 C455.622567,512.527191 455.177011,514.480595 454.467854,516.298332 C452.367893,521.681033 448.408026,524.945452 442,525.240829 L442,507 L440,507 L440,526.97821 L441.032471,526.97821 L441.032471,527 C448.970171,527 453.906332,523.150479 456.362048,516.855894 C456.836078,515.640842 457.198752,514.377046 457.463906,513.088781 C459.764047,516.734263 464.74519,518.783478 472.027778,518.950253 L472.027778,519.00169 L474.028133,519.00169 L474.028133,507.00169 L472.027778,507.00169 L472.027778,516.950222 C462.957916,516.741322 458.258109,513.588333 458.022461,508.134919 C458.028434,507.826801 458.027787,507.538172 458.021718,507.270842 C458.023202,507.233507 458.024878,507.196074 458.026747,507.158543 L458.018806,507.158148 C458.016367,507.074235 458.014149,507.01986 458.013401,507.022997 L456.013401,507.022988 C456.015691,507.09267 456.01802,507.151144 456.019871,507.217024 C456.020221,507.229491 456.020559,507.242015 456.020883,507.254594 C456.009688,507.570315 456.009778,507.880225 456.02106,508.184252 Z M439,507 L439,509 L440,509 L440,507 L439,507 Z M475.028311,507.00169 L475.028311,509.00169 L474.028133,509.00169 L474.028133,507.00169 L475.028311,507.00169 Z" id="Combined-Shape-Copy-61" fill="#252525"></path>
                <path d="M344.02106,189.184252 C344.005167,189.873289 343.953985,190.668504 343.852378,191.544929 C343.622567,193.527191 343.177011,195.480595 342.467854,197.298332 C340.367893,202.681033 336.408026,205.945452 330,206.240829 L330,188 L328,188 L328,207.97821 L329.032471,207.97821 L329.032471,208 C336.970171,208 341.906332,204.150479 344.362048,197.855894 C344.836078,196.640842 345.198752,195.377046 345.463906,194.088781 C347.764047,197.734263 352.74519,199.783478 360.027778,199.950253 L360.027778,200.00169 L362.028133,200.00169 L362.028133,188.00169 L360.027778,188.00169 L360.027778,197.950222 C350.957916,197.741322 346.258109,194.588333 346.022461,189.134919 C346.028434,188.826801 346.027787,188.538172 346.021718,188.270842 C346.023202,188.233507 346.024878,188.196074 346.026747,188.158543 L346.018806,188.158148 C346.016367,188.074235 346.014149,188.01986 346.013401,188.022997 L344.013401,188.022988 C344.015691,188.09267 344.01802,188.151144 344.019871,188.217024 C344.020221,188.229491 344.020559,188.242015 344.020883,188.254594 C344.009688,188.570315 344.009778,188.880225 344.02106,189.184252 Z M327,188 L327,190 L328,190 L328,188 L327,188 Z M363.028311,188.00169 L363.028311,190.00169 L362.028133,190.00169 L362.028133,188.00169 L363.028311,188.00169 Z" id="Combined-Shape-Copy-4" fill="#252525" transform="translate(345.014155, 198.000000) scale(-1, -1) translate(-345.014155, -198.000000) "></path>
                <path d="M344.02106,26.1842518 C344.005167,26.8732888 343.953985,27.6685044 343.852378,28.5449294 C343.622567,30.5271914 343.177011,32.480595 342.467854,34.2983321 C340.367893,39.6810327 336.408026,42.9454516 330,43.2408286 L330,25 L328,25 L328,44.9782103 L329.032471,44.9782103 L329.032471,45 C336.970171,45 341.906332,41.1504793 344.362048,34.8558939 C344.836078,33.6408421 345.198752,32.3770456 345.463906,31.0887813 C347.764047,34.7342627 352.74519,36.7834781 360.027778,36.9502533 L360.027778,37.0016901 L362.028133,37.0016901 L362.028133,25.0016901 L360.027778,25.0016901 L360.027778,34.9502218 C350.957916,34.7413221 346.258109,31.5883329 346.022461,26.1349193 C346.028434,25.826801 346.027787,25.5381718 346.021718,25.2708425 C346.023202,25.2335069 346.024878,25.1960736 346.026747,25.158543 L346.018806,25.1581475 C346.016367,25.0742346 346.014149,25.0198604 346.013401,25.0229966 L344.013401,25.0229883 C344.015691,25.0926696 344.01802,25.1511438 344.019871,25.2170235 C344.020221,25.2294911 344.020559,25.2420148 344.020883,25.2545942 C344.009688,25.570315 344.009778,25.8802247 344.02106,26.1842518 Z M327,25 L327,27 L328,27 L328,25 L327,25 Z M363.028311,25.0016901 L363.028311,27.0016901 L362.028133,27.0016901 L362.028133,25.0016901 L363.028311,25.0016901 Z" id="Combined-Shape-Copy-62" fill="#252525" transform="translate(345.014155, 35.000000) scale(-1, -1) translate(-345.014155, -35.000000) "></path>
                <path d="M268.02106,46.1842518 C268.005167,46.8732888 267.953985,47.6685044 267.852378,48.5449294 C267.622567,50.5271914 267.177011,52.480595 266.467854,54.2983321 C264.367893,59.6810327 260.408026,62.9454516 254,63.2408286 L254,45 L252,45 L252,64.9782103 L253.032471,64.9782103 L253.032471,65 C260.970171,65 265.906332,61.1504793 268.362048,54.8558939 C268.836078,53.6408421 269.198752,52.3770456 269.463906,51.0887813 C271.764047,54.7342627 276.74519,56.7834781 284.027778,56.9502533 L284.027778,57.0016901 L286.028133,57.0016901 L286.028133,45.0016901 L284.027778,45.0016901 L284.027778,54.9502218 C274.957916,54.7413221 270.258109,51.5883329 270.022461,46.1349193 C270.028434,45.826801 270.027787,45.5381718 270.021718,45.2708425 C270.023202,45.2335069 270.024878,45.1960736 270.026747,45.158543 L270.018806,45.1581475 C270.016367,45.0742346 270.014149,45.0198604 270.013401,45.0229966 L268.013401,45.0229883 C268.015691,45.0926696 268.01802,45.1511438 268.019871,45.2170235 C268.020221,45.2294911 268.020559,45.2420148 268.020883,45.2545942 C268.009688,45.570315 268.009778,45.8802247 268.02106,46.1842518 Z M251,45 L251,47 L252,47 L252,45 L251,45 Z M287.028311,45.0016901 L287.028311,47.0016901 L286.028133,47.0016901 L286.028133,45.0016901 L287.028311,45.0016901 Z" id="Combined-Shape-Copy-62" fill="#252525"></path>
                <path d="M217.022997,329 L217.022988,327.013401 C217.09267,327.015691 217.151144,327.01802 217.217024,327.019871 C218.084022,327.044232 219.221952,327.005755 220.544929,326.852378 C222.527191,326.622567 224.480595,326.177011 226.298332,325.467854 C231.681033,323.367893 234.945452,319.408026 235.240829,313 L217,313 L217,311 L236.97821,311 L236.97821,312.032471 L237,312.032471 C237,319.970171 233.150479,324.906332 226.855894,327.362048 C224.902611,328.124085 222.823359,328.598346 220.718992,328.842313 C220.031687,328.921995 219.390536,328.972416 218.80525,329 L219,329 L219,330 L217,330 L217,329 L217.022997,329 Z M217,310 L219,310 L219,311 L217,311 L217,310 Z" id="Combined-Shape-Copy-26" fill="#252525" transform="translate(227.000000, 320.000000) rotate(-90.000000) translate(-227.000000, -320.000000) "></path>
                <path d="M217.022997,454 L217.022988,452.013401 C217.09267,452.015691 217.151144,452.01802 217.217024,452.019871 C218.084022,452.044232 219.221952,452.005755 220.544929,451.852378 C222.527191,451.622567 224.480595,451.177011 226.298332,450.467854 C231.681033,448.367893 234.945452,444.408026 235.240829,438 L217,438 L217,436 L236.97821,436 L236.97821,437.032471 L237,437.032471 C237,444.970171 233.150479,449.906332 226.855894,452.362048 C224.902611,453.124085 222.823359,453.598346 220.718992,453.842313 C220.031687,453.921995 219.390536,453.972416 218.80525,454 L219,454 L219,455 L217,455 L217,454 L217.022997,454 Z M217,435 L219,435 L219,436 L217,436 L217,435 Z" id="Combined-Shape-Copy-29" fill="#252525" transform="translate(227.000000, 445.000000) scale(1, -1) rotate(-90.000000) translate(-227.000000, -445.000000) "></path>
                <path d="M168.022997,541 L168.022988,539.013401 C168.09267,539.015691 168.151144,539.01802 168.217024,539.019871 C169.084022,539.044232 170.221952,539.005755 171.544929,538.852378 C173.527191,538.622567 175.480595,538.177011 177.298332,537.467854 C182.681033,535.367893 185.945452,531.408026 186.240829,525 L168,525 L168,523 L187.97821,523 L187.97821,524.032471 L188,524.032471 C188,531.970171 184.150479,536.906332 177.855894,539.362048 C175.902611,540.124085 173.823359,540.598346 171.718992,540.842313 C171.031687,540.921995 170.390536,540.972416 169.80525,541 L170,541 L170,542 L168,542 L168,541 L168.022997,541 Z M168,522 L170,522 L170,523 L168,523 L168,522 Z" id="Combined-Shape-Copy-31" fill="#252525" transform="translate(178.000000, 532.000000) scale(-1, -1) rotate(-90.000000) translate(-178.000000, -532.000000) "></path>
                <path d="M147.022997,575 L147.022988,573.013401 C147.09267,573.015691 147.151144,573.01802 147.217024,573.019871 C148.084022,573.044232 149.221952,573.005755 150.544929,572.852378 C152.527191,572.622567 154.480595,572.177011 156.298332,571.467854 C161.681033,569.367893 164.945452,565.408026 165.240829,559 L147,559 L147,557 L166.97821,557 L166.97821,558.032471 L167,558.032471 C167,565.970171 163.150479,570.906332 156.855894,573.362048 C154.902611,574.124085 152.823359,574.598346 150.718992,574.842313 C150.031687,574.921995 149.390536,574.972416 148.80525,575 L149,575 L149,576 L147,576 L147,575 L147.022997,575 Z M147,556 L149,556 L149,557 L147,557 L147,556 Z" id="Combined-Shape-Copy-32" fill="#252525" transform="translate(157.000000, 566.000000) scale(1, -1) rotate(-90.000000) translate(-157.000000, -566.000000) "></path>
                <path d="M249.022997,575 L249.022988,573.013401 C249.09267,573.015691 249.151144,573.01802 249.217024,573.019871 C250.084022,573.044232 251.221952,573.005755 252.544929,572.852378 C254.527191,572.622567 256.480595,572.177011 258.298332,571.467854 C263.681033,569.367893 266.945452,565.408026 267.240829,559 L249,559 L249,557 L268.97821,557 L268.97821,558.032471 L269,558.032471 C269,565.970171 265.150479,570.906332 258.855894,573.362048 C256.902611,574.124085 254.823359,574.598346 252.718992,574.842313 C252.031687,574.921995 251.390536,574.972416 250.80525,575 L251,575 L251,576 L249,576 L249,575 L249.022997,575 Z M249,556 L251,556 L251,557 L249,557 L249,556 Z" id="Combined-Shape-Copy-33" fill="#252525" transform="translate(259.000000, 566.000000) scale(1, -1) rotate(-90.000000) translate(-259.000000, -566.000000) "></path>
                <path d="M244.022997,668 L244.022988,666.013401 C244.09267,666.015691 244.151144,666.01802 244.217024,666.019871 C245.084022,666.044232 246.221952,666.005755 247.544929,665.852378 C249.527191,665.622567 251.480595,665.177011 253.298332,664.467854 C258.681033,662.367893 261.945452,658.408026 262.240829,652 L244,652 L244,650 L263.97821,650 L263.97821,651.032471 L264,651.032471 C264,658.970171 260.150479,663.906332 253.855894,666.362048 C251.902611,667.124085 249.823359,667.598346 247.718992,667.842313 C247.031687,667.921995 246.390536,667.972416 245.80525,668 L246,668 L246,669 L244,669 L244,668 L244.022997,668 Z M244,649 L246,649 L246,650 L244,650 L244,649 Z" id="Combined-Shape-Copy-40" fill="#252525" transform="translate(254.000000, 659.000000) scale(1, -1) rotate(-90.000000) translate(-254.000000, -659.000000) "></path>
                <path d="M553.022997,575 L553.022988,573.013401 C553.09267,573.015691 553.151144,573.01802 553.217024,573.019871 C554.084022,573.044232 555.221952,573.005755 556.544929,572.852378 C558.527191,572.622567 560.480595,572.177011 562.298332,571.467854 C567.681033,569.367893 570.945452,565.408026 571.240829,559 L553,559 L553,557 L572.97821,557 L572.97821,558.032471 L573,558.032471 C573,565.970171 569.150479,570.906332 562.855894,573.362048 C560.902611,574.124085 558.823359,574.598346 556.718992,574.842313 C556.031687,574.921995 555.390536,574.972416 554.80525,575 L555,575 L555,576 L553,576 L553,575 L553.022997,575 Z M553,556 L555,556 L555,557 L553,557 L553,556 Z" id="Combined-Shape-Copy-36" fill="#252525" transform="translate(563.000000, 566.000000) scale(1, -1) rotate(-90.000000) translate(-563.000000, -566.000000) "></path>
                <path d="M606.022997,453 L606.022988,451.013401 C606.09267,451.015691 606.151144,451.01802 606.217024,451.019871 C607.084022,451.044232 608.221952,451.005755 609.544929,450.852378 C611.527191,450.622567 613.480595,450.177011 615.298332,449.467854 C620.681033,447.367893 623.945452,443.408026 624.240829,437 L606,437 L606,435 L625.97821,435 L625.97821,436.032471 L626,436.032471 C626,443.970171 622.150479,448.906332 615.855894,451.362048 C613.902611,452.124085 611.823359,452.598346 609.718992,452.842313 C609.031687,452.921995 608.390536,452.972416 607.80525,453 L608,453 L608,454 L606,454 L606,453 L606.022997,453 Z M606,434 L608,434 L608,435 L606,435 L606,434 Z" id="Combined-Shape-Copy-48" fill="#252525" transform="translate(616.000000, 444.000000) scale(1, -1) rotate(-90.000000) translate(-616.000000, -444.000000) "></path>
                <path d="M606.022997,328 L606.022988,326.013401 C606.09267,326.015691 606.151144,326.01802 606.217024,326.019871 C607.084022,326.044232 608.221952,326.005755 609.544929,325.852378 C611.527191,325.622567 613.480595,325.177011 615.298332,324.467854 C620.681033,322.367893 623.945452,318.408026 624.240829,312 L606,312 L606,310 L625.97821,310 L625.97821,311.032471 L626,311.032471 C626,318.970171 622.150479,323.906332 615.855894,326.362048 C613.902611,327.124085 611.823359,327.598346 609.718992,327.842313 C609.031687,327.921995 608.390536,327.972416 607.80525,328 L608,328 L608,329 L606,329 L606,328 L606.022997,328 Z M606,309 L608,309 L608,310 L606,310 L606,309 Z" id="Combined-Shape-Copy-48" fill="#252525" transform="translate(616.000000, 319.000000) rotate(-90.000000) translate(-616.000000, -319.000000) "></path>
                <path d="M683.022997,226 L683.022988,224.013401 C683.09267,224.015691 683.151144,224.01802 683.217024,224.019871 C684.084022,224.044232 685.221952,224.005755 686.544929,223.852378 C688.527191,223.622567 690.480595,223.177011 692.298332,222.467854 C697.681033,220.367893 700.945452,216.408026 701.240829,210 L683,210 L683,208 L702.97821,208 L702.97821,209.032471 L703,209.032471 C703,216.970171 699.150479,221.906332 692.855894,224.362048 C690.902611,225.124085 688.823359,225.598346 686.718992,225.842313 C686.031687,225.921995 685.390536,225.972416 684.80525,226 L685,226 L685,227 L683,227 L683,226 L683.022997,226 Z M683,207 L685,207 L685,208 L683,208 L683,207 Z" id="Combined-Shape-Copy-52" fill="#252525" transform="translate(693.000000, 217.000000) scale(1, -1) rotate(-90.000000) translate(-693.000000, -217.000000) "></path>
                <path d="M487.022997,207 L487.022988,205.013401 C487.09267,205.015691 487.151144,205.01802 487.217024,205.019871 C488.084022,205.044232 489.221952,205.005755 490.544929,204.852378 C492.527191,204.622567 494.480595,204.177011 496.298332,203.467854 C501.681033,201.367893 504.945452,197.408026 505.240829,191 L487,191 L487,189 L506.97821,189 L506.97821,190.032471 L507,190.032471 C507,197.970171 503.150479,202.906332 496.855894,205.362048 C494.902611,206.124085 492.823359,206.598346 490.718992,206.842313 C490.031687,206.921995 489.390536,206.972416 488.80525,207 L489,207 L489,208 L487,208 L487,207 L487.022997,207 Z M487,188 L489,188 L489,189 L487,189 L487,188 Z" id="Combined-Shape-Copy-52" fill="#252525" transform="translate(497.000000, 198.000000) rotate(-90.000000) translate(-497.000000, -198.000000) "></path>
                <path d="M507.022997,146 L507.022988,144.013401 C507.09267,144.015691 507.151144,144.01802 507.217024,144.019871 C508.084022,144.044232 509.221952,144.005755 510.544929,143.852378 C512.527191,143.622567 514.480595,143.177011 516.298332,142.467854 C521.681033,140.367893 524.945452,136.408026 525.240829,130 L507,130 L507,128 L526.97821,128 L526.97821,129.032471 L527,129.032471 C527,136.970171 523.150479,141.906332 516.855894,144.362048 C514.902611,145.124085 512.823359,145.598346 510.718992,145.842313 C510.031687,145.921995 509.390536,145.972416 508.80525,146 L509,146 L509,147 L507,147 L507,146 L507.022997,146 Z M507,127 L509,127 L509,128 L507,128 L507,127 Z" id="Combined-Shape-Copy-55" fill="#252525" transform="translate(517.000000, 137.000000) rotate(-90.000000) translate(-517.000000, -137.000000) "></path>
                <path d="M477.022997,125 L477.022988,123.013401 C477.09267,123.015691 477.151144,123.01802 477.217024,123.019871 C478.084022,123.044232 479.221952,123.005755 480.544929,122.852378 C482.527191,122.622567 484.480595,122.177011 486.298332,121.467854 C491.681033,119.367893 494.945452,115.408026 495.240829,109 L477,109 L477,107 L496.97821,107 L496.97821,108.032471 L497,108.032471 C497,115.970171 493.150479,120.906332 486.855894,123.362048 C484.902611,124.124085 482.823359,124.598346 480.718992,124.842313 C480.031687,124.921995 479.390536,124.972416 478.80525,125 L479,125 L479,126 L477,126 L477,125 L477.022997,125 Z M477,106 L479,106 L479,107 L477,107 L477,106 Z" id="Combined-Shape-Copy-54" fill="#252525" transform="translate(487.000000, 116.000000) scale(-1, 1) rotate(-90.000000) translate(-487.000000, -116.000000) "></path>
                <path d="M642.022997,453 L642.022988,451.013401 C642.09267,451.015691 642.151144,451.01802 642.217024,451.019871 C643.084022,451.044232 644.221952,451.005755 645.544929,450.852378 C647.527191,450.622567 649.480595,450.177011 651.298332,449.467854 C656.681033,447.367893 659.945452,443.408026 660.240829,437 L642,437 L642,435 L661.97821,435 L661.97821,436.032471 L662,436.032471 C662,443.970171 658.150479,448.906332 651.855894,451.362048 C649.902611,452.124085 647.823359,452.598346 645.718992,452.842313 C645.031687,452.921995 644.390536,452.972416 643.80525,453 L644,453 L644,454 L642,454 L642,453 L642.022997,453 Z M642,434 L644,434 L644,435 L642,435 L642,434 Z" id="Combined-Shape-Copy-49" fill="#252525" transform="translate(652.000000, 444.000000) scale(1, -1) rotate(-90.000000) translate(-652.000000, -444.000000) "></path>
                <path d="M564.022997,646 L564.022988,644.013401 C564.09267,644.015691 564.151144,644.01802 564.217024,644.019871 C565.084022,644.044232 566.221952,644.005755 567.544929,643.852378 C569.527191,643.622567 571.480595,643.177011 573.298332,642.467854 C578.681033,640.367893 581.945452,636.408026 582.240829,630 L564,630 L564,628 L583.97821,628 L583.97821,629.032471 L584,629.032471 C584,636.970171 580.150479,641.906332 573.855894,644.362048 C571.902611,645.124085 569.823359,645.598346 567.718992,645.842313 C567.031687,645.921995 566.390536,645.972416 565.80525,646 L566,646 L566,647 L564,647 L564,646 L564.022997,646 Z M564,627 L566,627 L566,628 L564,628 L564,627 Z" id="Combined-Shape-Copy-38" fill="#252525" transform="translate(574.000000, 637.000000) scale(-1, -1) rotate(-90.000000) translate(-574.000000, -637.000000) "></path>
                <rect id="Rectangle-16" fill="#252525" x="551" y="625" width="13" height="5"></rect>
                <path d="M419.022997,668 L419.022988,666.013401 C419.09267,666.015691 419.151144,666.01802 419.217024,666.019871 C420.084022,666.044232 421.221952,666.005755 422.544929,665.852378 C424.527191,665.622567 426.480595,665.177011 428.298332,664.467854 C433.681033,662.367893 436.945452,658.408026 437.240829,652 L419,652 L419,650 L438.97821,650 L438.97821,651.032471 L439,651.032471 C439,658.970171 435.150479,663.906332 428.855894,666.362048 C426.902611,667.124085 424.823359,667.598346 422.718992,667.842313 C422.031687,667.921995 421.390536,667.972416 420.80525,668 L421,668 L421,669 L419,669 L419,668 L419.022997,668 Z M419,649 L421,649 L421,650 L419,650 L419,649 Z" id="Combined-Shape-Copy-39" fill="#252525" transform="translate(429.000000, 659.000000) scale(1, -1) rotate(-90.000000) translate(-429.000000, -659.000000) "></path>
                <path d="M421.022997,575 L421.022988,573.013401 C421.09267,573.015691 421.151144,573.01802 421.217024,573.019871 C422.084022,573.044232 423.221952,573.005755 424.544929,572.852378 C426.527191,572.622567 428.480595,572.177011 430.298332,571.467854 C435.681033,569.367893 438.945452,565.408026 439.240829,559 L421,559 L421,557 L440.97821,557 L440.97821,558.032471 L441,558.032471 C441,565.970171 437.150479,570.906332 430.855894,573.362048 C428.902611,574.124085 426.823359,574.598346 424.718992,574.842313 C424.031687,574.921995 423.390536,574.972416 422.80525,575 L423,575 L423,576 L421,576 L421,575 L421.022997,575 Z M421,556 L423,556 L423,557 L421,557 L421,556 Z" id="Combined-Shape-Copy-34" fill="#252525" transform="translate(431.000000, 566.000000) scale(-1, -1) rotate(-90.000000) translate(-431.000000, -566.000000) "></path>
                <path d="M383.022997,624 L383.022988,622.013401 C383.09267,622.015691 383.151144,622.01802 383.217024,622.019871 C384.084022,622.044232 385.221952,622.005755 386.544929,621.852378 C388.527191,621.622567 390.480595,621.177011 392.298332,620.467854 C397.681033,618.367893 400.945452,614.408026 401.240829,608 L383,608 L383,606 L402.97821,606 L402.97821,607.032471 L403,607.032471 C403,614.970171 399.150479,619.906332 392.855894,622.362048 C390.902611,623.124085 388.823359,623.598346 386.718992,623.842313 C386.031687,623.921995 385.390536,623.972416 384.80525,624 L385,624 L385,625 L383,625 L383,624 L383.022997,624 Z M383,605 L385,605 L385,606 L383,606 L383,605 Z" id="Combined-Shape-Copy-35" fill="#252525" transform="translate(393.000000, 615.000000) scale(-1, -1) rotate(-90.000000) translate(-393.000000, -615.000000) "></path>
                <path d="M124.022997,550 L124.022988,548.013401 C124.09267,548.015691 124.151144,548.01802 124.217024,548.019871 C125.084022,548.044232 126.221952,548.005755 127.544929,547.852378 C129.527191,547.622567 131.480595,547.177011 133.298332,546.467854 C138.681033,544.367893 141.945452,540.408026 142.240829,534 L124,534 L124,532 L143.97821,532 L143.97821,533.032471 L144,533.032471 C144,540.970171 140.150479,545.906332 133.855894,548.362048 C131.902611,549.124085 129.823359,549.598346 127.718992,549.842313 C127.031687,549.921995 126.390536,549.972416 125.80525,550 L126,550 L126,551 L124,551 L124,550 L124.022997,550 Z M124,531 L126,531 L126,532 L124,532 L124,531 Z" id="Combined-Shape-Copy-31" fill="#252525" transform="translate(134.000000, 541.000000) scale(-1, -1) rotate(-360.000000) translate(-134.000000, -541.000000) "></path>
                <path d="M51.0229966,535 L51.0229883,533.013401 C51.0926696,533.015691 51.1511438,533.01802 51.2170235,533.019871 C52.0840221,533.044232 53.2219524,533.005755 54.5449294,532.852378 C56.5271914,532.622567 58.480595,532.177011 60.2983321,531.467854 C65.6810327,529.367893 68.9454516,525.408026 69.2408286,519 L51,519 L51,517 L70.9782103,517 L70.9782103,518.032471 L71,518.032471 C71,525.970171 67.1504793,530.906332 60.8558939,533.362048 C58.9026114,534.124085 56.8233586,534.598346 54.7189922,534.842313 C54.0316872,534.921995 53.3905356,534.972416 52.8052499,535 L53,535 L53,536 L51,536 L51,535 L51.0229966,535 Z M51,516 L53,516 L53,517 L51,517 L51,516 Z" id="Combined-Shape-Copy-37" fill="#252525" transform="translate(61.000000, 526.000000) scale(1, -1) rotate(-360.000000) translate(-61.000000, -526.000000) "></path>
                <g id="Окно-24*15-верт" transform="translate(43.000000, 492.000000)" fill="#252525">
                    <g id="Окно-24*15" transform="translate(7.500000, 12.000000) rotate(-270.000000) translate(-7.500000, -12.000000) translate(-4.500000, 4.500000)">
                        <path d="M23,1 L1,1 L1,14 L23,14 L23,1 Z M24,15 L0,15 L0,0 L24,0 L24,15 Z" id="Rectangle-2-Copy-27"></path>
                    </g>
                </g>
                <path d="M218.022997,547 L218.022988,545.013401 C218.09267,545.015691 218.151144,545.01802 218.217024,545.019871 C219.084022,545.044232 220.221952,545.005755 221.544929,544.852378 C223.527191,544.622567 225.480595,544.177011 227.298332,543.467854 C232.681033,541.367893 235.945452,537.408026 236.240829,531 L218,531 L218,529 L237.97821,529 L237.97821,530.032471 L238,530.032471 C238,537.970171 234.150479,542.906332 227.855894,545.362048 C225.902611,546.124085 223.823359,546.598346 221.718992,546.842313 C221.031687,546.921995 220.390536,546.972416 219.80525,547 L220,547 L220,548 L218,548 L218,547 L218.022997,547 Z M218,528 L220,528 L220,529 L218,529 L218,528 Z" id="Combined-Shape-Copy-53" fill="#252525" transform="translate(228.000000, 538.000000) scale(-1, 1) rotate(-360.000000) translate(-228.000000, -538.000000) "></path>
                <path d="M256.022997,469 L256.022988,467.013401 C256.09267,467.015691 256.151144,467.01802 256.217024,467.019871 C257.084022,467.044232 258.221952,467.005755 259.544929,466.852378 C261.527191,466.622567 263.480595,466.177011 265.298332,465.467854 C270.681033,463.367893 273.945452,459.408026 274.240829,453 L256,453 L256,451 L275.97821,451 L275.97821,452.032471 L276,452.032471 C276,459.970171 272.150479,464.906332 265.855894,467.362048 C263.902611,468.124085 261.823359,468.598346 259.718992,468.842313 C259.031687,468.921995 258.390536,468.972416 257.80525,469 L258,469 L258,470 L256,470 L256,469 L256.022997,469 Z M256,450 L258,450 L258,451 L256,451 L256,450 Z" id="Combined-Shape-Copy-30" fill="#252525" transform="translate(266.000000, 460.000000) rotate(-90.000000) translate(-266.000000, -460.000000) "></path>
                <path d="M259.022997,313 L259.022988,311.013401 C259.09267,311.015691 259.151144,311.01802 259.217024,311.019871 C260.084022,311.044232 261.221952,311.005755 262.544929,310.852378 C264.527191,310.622567 266.480595,310.177011 268.298332,309.467854 C273.681033,307.367893 276.945452,303.408026 277.240829,297 L259,297 L259,295 L278.97821,295 L278.97821,296.032471 L279,296.032471 C279,303.970171 275.150479,308.906332 268.855894,311.362048 C266.902611,312.124085 264.823359,312.598346 262.718992,312.842313 C262.031687,312.921995 261.390536,312.972416 260.80525,313 L261,313 L261,314 L259,314 L259,313 L259.022997,313 Z M259,294 L261,294 L261,295 L259,295 L259,294 Z" id="Combined-Shape-Copy-27" fill="#252525" transform="translate(269.000000, 304.000000) scale(-1, -1) rotate(-90.000000) translate(-269.000000, -304.000000) "></path>
                <path d="M211.022997,158 L211.022988,156.013401 C211.09267,156.015691 211.151144,156.01802 211.217024,156.019871 C212.084022,156.044232 213.221952,156.005755 214.544929,155.852378 C216.527191,155.622567 218.480595,155.177011 220.298332,154.467854 C225.681033,152.367893 228.945452,148.408026 229.240829,142 L211,142 L211,140 L230.97821,140 L230.97821,141.032471 L231,141.032471 C231,148.970171 227.150479,153.906332 220.855894,156.362048 C218.902611,157.124085 216.823359,157.598346 214.718992,157.842313 C214.031687,157.921995 213.390536,157.972416 212.80525,158 L213,158 L213,159 L211,159 L211,158 L211.022997,158 Z M211,139 L213,139 L213,140 L211,140 L211,139 Z" id="Combined-Shape-Copy-24" fill="#252525" transform="translate(221.000000, 149.000000) scale(-1, 1) rotate(-90.000000) translate(-221.000000, -149.000000) "></path>
                <path d="M253.022997,624 L253.022988,622.013401 C253.09267,622.015691 253.151144,622.01802 253.217024,622.019871 C254.084022,622.044232 255.221952,622.005755 256.544929,621.852378 C258.527191,621.622567 260.480595,621.177011 262.298332,620.467854 C267.681033,618.367893 270.945452,614.408026 271.240829,608 L253,608 L253,606 L272.97821,606 L272.97821,607.032471 L273,607.032471 C273,614.970171 269.150479,619.906332 262.855894,622.362048 C260.902611,623.124085 258.823359,623.598346 256.718992,623.842313 C256.031687,623.921995 255.390536,623.972416 254.80525,624 L255,624 L255,625 L253,625 L253,624 L253.022997,624 Z M253,605 L255,605 L255,606 L253,606 L253,605 Z" id="Combined-Shape-Copy-41" fill="#252525" transform="translate(263.000000, 615.000000) scale(-1, -1) translate(-263.000000, -615.000000) "></path>
                <path d="M428.022997,624 L428.022988,622.013401 C428.09267,622.015691 428.151144,622.01802 428.217024,622.019871 C429.084022,622.044232 430.221952,622.005755 431.544929,621.852378 C433.527191,621.622567 435.480595,621.177011 437.298332,620.467854 C442.681033,618.367893 445.945452,614.408026 446.240829,608 L428,608 L428,606 L447.97821,606 L447.97821,607.032471 L448,607.032471 C448,614.970171 444.150479,619.906332 437.855894,622.362048 C435.902611,623.124085 433.823359,623.598346 431.718992,623.842313 C431.031687,623.921995 430.390536,623.972416 429.80525,624 L430,624 L430,625 L428,625 L428,624 L428.022997,624 Z M428,605 L430,605 L430,606 L428,606 L428,605 Z" id="Combined-Shape-Copy-43" fill="#252525" transform="translate(438.000000, 615.000000) scale(-1, -1) translate(-438.000000, -615.000000) "></path>
                <path d="M553.022997,624 L553.022988,622.013401 C553.09267,622.015691 553.151144,622.01802 553.217024,622.019871 C554.084022,622.044232 555.221952,622.005755 556.544929,621.852378 C558.527191,621.622567 560.480595,621.177011 562.298332,620.467854 C567.681033,618.367893 570.945452,614.408026 571.240829,608 L553,608 L553,606 L572.97821,606 L572.97821,607.032471 L573,607.032471 C573,614.970171 569.150479,619.906332 562.855894,622.362048 C560.902611,623.124085 558.823359,623.598346 556.718992,623.842313 C556.031687,623.921995 555.390536,623.972416 554.80525,624 L555,624 L555,625 L553,625 L553,624 L553.022997,624 Z M553,605 L555,605 L555,606 L553,606 L553,605 Z" id="Combined-Shape-Copy-43" fill="#252525" transform="translate(563.000000, 615.000000) scale(1, -1) translate(-563.000000, -615.000000) "></path>
                <path d="M647.022997,583 L647.022988,581.013401 C647.09267,581.015691 647.151144,581.01802 647.217024,581.019871 C648.084022,581.044232 649.221952,581.005755 650.544929,580.852378 C652.527191,580.622567 654.480595,580.177011 656.298332,579.467854 C661.681033,577.367893 664.945452,573.408026 665.240829,567 L647,567 L647,565 L666.97821,565 L666.97821,566.032471 L667,566.032471 C667,573.970171 663.150479,578.906332 656.855894,581.362048 C654.902611,582.124085 652.823359,582.598346 650.718992,582.842313 C650.031687,582.921995 649.390536,582.972416 648.80525,583 L649,583 L649,584 L647,584 L647,583 L647.022997,583 Z M647,564 L649,564 L649,565 L647,565 L647,564 Z" id="Combined-Shape-Copy-44" fill="#252525"></path>
                <path d="M710.022997,592 L710.022988,590.013401 C710.09267,590.015691 710.151144,590.01802 710.217024,590.019871 C711.084022,590.044232 712.221952,590.005755 713.544929,589.852378 C715.527191,589.622567 717.480595,589.177011 719.298332,588.467854 C724.681033,586.367893 727.945452,582.408026 728.240829,576 L710,576 L710,574 L729.97821,574 L729.97821,575.032471 L730,575.032471 C730,582.970171 726.150479,587.906332 719.855894,590.362048 C717.902611,591.124085 715.823359,591.598346 713.718992,591.842313 C713.031687,591.921995 712.390536,591.972416 711.80525,592 L712,592 L712,593 L710,593 L710,592 L710.022997,592 Z M710,573 L712,573 L712,574 L710,574 L710,573 Z" id="Combined-Shape-Copy-69" fill="#252525" transform="translate(720.000000, 583.000000) scale(-1, 1) translate(-720.000000, -583.000000) "></path>
                <g id="Окно-24*15-верт" transform="translate(723.000000, 593.000000)" fill="#252525">
                    <g id="Окно-24*15" transform="translate(7.500000, 12.000000) rotate(-270.000000) translate(-7.500000, -12.000000) translate(-4.500000, 4.500000)">
                        <path d="M23,1 L1,1 L1,14 L23,14 L23,1 Z M24,15 L0,15 L0,0 L24,0 L24,15 Z" id="Rectangle-2-Copy-27"></path>
                    </g>
                </g>
                <path d="M628.022997,527 L628.022988,525.013401 C628.09267,525.015691 628.151144,525.01802 628.217024,525.019871 C629.084022,525.044232 630.221952,525.005755 631.544929,524.852378 C633.527191,524.622567 635.480595,524.177011 637.298332,523.467854 C642.681033,521.367893 645.945452,517.408026 646.240829,511 L628,511 L628,509 L647.97821,509 L647.97821,510.032471 L648,510.032471 C648,517.970171 644.150479,522.906332 637.855894,525.362048 C635.902611,526.124085 633.823359,526.598346 631.718992,526.842313 C631.031687,526.921995 630.390536,526.972416 629.80525,527 L630,527 L630,528 L628,528 L628,527 L628.022997,527 Z M628,508 L630,508 L630,509 L628,509 L628,508 Z" id="Combined-Shape-Copy-45" fill="#252525"></path>
                <path d="M667.022997,462 L667.022988,460.013401 C667.09267,460.015691 667.151144,460.01802 667.217024,460.019871 C668.084022,460.044232 669.221952,460.005755 670.544929,459.852378 C672.527191,459.622567 674.480595,459.177011 676.298332,458.467854 C681.681033,456.367893 684.945452,452.408026 685.240829,446 L667,446 L667,444 L686.97821,444 L686.97821,445.032471 L687,445.032471 C687,452.970171 683.150479,457.906332 676.855894,460.362048 C674.902611,461.124085 672.823359,461.598346 670.718992,461.842313 C670.031687,461.921995 669.390536,461.972416 668.80525,462 L669,462 L669,463 L667,463 L667,462 L667.022997,462 Z M667,443 L669,443 L669,444 L667,444 L667,443 Z" id="Combined-Shape-Copy-47" fill="#252525" transform="translate(677.000000, 453.000000) scale(1, -1) translate(-677.000000, -453.000000) "></path>
                <path d="M648.022997,320 L648.022988,318.013401 C648.09267,318.015691 648.151144,318.01802 648.217024,318.019871 C649.084022,318.044232 650.221952,318.005755 651.544929,317.852378 C653.527191,317.622567 655.480595,317.177011 657.298332,316.467854 C662.681033,314.367893 665.945452,310.408026 666.240829,304 L648,304 L648,302 L667.97821,302 L667.97821,303.032471 L668,303.032471 C668,310.970171 664.150479,315.906332 657.855894,318.362048 C655.902611,319.124085 653.823359,319.598346 651.718992,319.842313 C651.031687,319.921995 650.390536,319.972416 649.80525,320 L650,320 L650,321 L648,321 L648,320 L648.022997,320 Z M648,301 L650,301 L650,302 L648,302 L648,301 Z" id="Combined-Shape-Copy-50" fill="#252525"></path>
                <path d="M754.022997,248 L754.022988,246.013401 C754.09267,246.015691 754.151144,246.01802 754.217024,246.019871 C755.084022,246.044232 756.221952,246.005755 757.544929,245.852378 C759.527191,245.622567 761.480595,245.177011 763.298332,244.467854 C768.681033,242.367893 771.945452,238.408026 772.240829,232 L754,232 L754,230 L773.97821,230 L773.97821,231.032471 L774,231.032471 C774,238.970171 770.150479,243.906332 763.855894,246.362048 C761.902611,247.124085 759.823359,247.598346 757.718992,247.842313 C757.031687,247.921995 756.390536,247.972416 755.80525,248 L756,248 L756,249 L754,249 L754,248 L754.022997,248 Z M754,229 L756,229 L756,230 L754,230 L754,229 Z" id="Combined-Shape-Copy-66" fill="#252525" transform="translate(764.000000, 239.000000) scale(-1, 1) translate(-764.000000, -239.000000) "></path>
                <path d="M754.022997,360 L754.022988,358.013401 C754.09267,358.015691 754.151144,358.01802 754.217024,358.019871 C755.084022,358.044232 756.221952,358.005755 757.544929,357.852378 C759.527191,357.622567 761.480595,357.177011 763.298332,356.467854 C768.681033,354.367893 771.945452,350.408026 772.240829,344 L754,344 L754,342 L773.97821,342 L773.97821,343.032471 L774,343.032471 C774,350.970171 770.150479,355.906332 763.855894,358.362048 C761.902611,359.124085 759.823359,359.598346 757.718992,359.842313 C757.031687,359.921995 756.390536,359.972416 755.80525,360 L756,360 L756,361 L754,361 L754,360 L754.022997,360 Z M754,341 L756,341 L756,342 L754,342 L754,341 Z" id="Combined-Shape-Copy-67" fill="#252525" transform="translate(764.000000, 351.000000) scale(-1, -1) translate(-764.000000, -351.000000) "></path>
                <path d="M586.022997,289 L586.022988,287.013401 C586.09267,287.015691 586.151144,287.01802 586.217024,287.019871 C587.084022,287.044232 588.221952,287.005755 589.544929,286.852378 C591.527191,286.622567 593.480595,286.177011 595.298332,285.467854 C600.681033,283.367893 603.945452,279.408026 604.240829,273 L586,273 L586,271 L605.97821,271 L605.97821,272.032471 L606,272.032471 C606,279.970171 602.150479,284.906332 595.855894,287.362048 C593.902611,288.124085 591.823359,288.598346 589.718992,288.842313 C589.031687,288.921995 588.390536,288.972416 587.80525,289 L588,289 L588,290 L586,290 L586,289 L586.022997,289 Z M586,270 L588,270 L588,271 L586,271 L586,270 Z" id="Combined-Shape-Copy-51" fill="#252525" transform="translate(596.000000, 280.000000) scale(1, -1) translate(-596.000000, -280.000000) "></path>
                <path d="M464.022997,195 L464.022988,193.013401 C464.09267,193.015691 464.151144,193.01802 464.217024,193.019871 C465.084022,193.044232 466.221952,193.005755 467.544929,192.852378 C469.527191,192.622567 471.480595,192.177011 473.298332,191.467854 C478.681033,189.367893 481.945452,185.408026 482.240829,179 L464,179 L464,177 L483.97821,177 L483.97821,178.032471 L484,178.032471 C484,185.970171 480.150479,190.906332 473.855894,193.362048 C471.902611,194.124085 469.823359,194.598346 467.718992,194.842313 C467.031687,194.921995 466.390536,194.972416 465.80525,195 L466,195 L466,196 L464,196 L464,195 L464.022997,195 Z M464,176 L466,176 L466,177 L464,177 L464,176 Z" id="Combined-Shape-Copy-56" fill="#252525" transform="translate(474.000000, 186.000000) scale(1, -1) translate(-474.000000, -186.000000) "></path>
                <path d="M464.022997,152 L464.022988,150.013401 C464.09267,150.015691 464.151144,150.01802 464.217024,150.019871 C465.084022,150.044232 466.221952,150.005755 467.544929,149.852378 C469.527191,149.622567 471.480595,149.177011 473.298332,148.467854 C478.681033,146.367893 481.945452,142.408026 482.240829,136 L464,136 L464,134 L483.97821,134 L483.97821,135.032471 L484,135.032471 C484,142.970171 480.150479,147.906332 473.855894,150.362048 C471.902611,151.124085 469.823359,151.598346 467.718992,151.842313 C467.031687,151.921995 466.390536,151.972416 465.80525,152 L466,152 L466,153 L464,153 L464,152 L464.022997,152 Z M464,133 L466,133 L466,134 L464,134 L464,133 Z" id="Combined-Shape-Copy-57" fill="#252525" transform="translate(474.000000, 143.000000) scale(1, -1) translate(-474.000000, -143.000000) "></path>
                <path d="M371.022997,171 L371.022988,169.013401 C371.09267,169.015691 371.151144,169.01802 371.217024,169.019871 C372.084022,169.044232 373.221952,169.005755 374.544929,168.852378 C376.527191,168.622567 378.480595,168.177011 380.298332,167.467854 C385.681033,165.367893 388.945452,161.408026 389.240829,155 L371,155 L371,153 L390.97821,153 L390.97821,154.032471 L391,154.032471 C391,161.970171 387.150479,166.906332 380.855894,169.362048 C378.902611,170.124085 376.823359,170.598346 374.718992,170.842313 C374.031687,170.921995 373.390536,170.972416 372.80525,171 L373,171 L373,172 L371,172 L371,171 L371.022997,171 Z M371,152 L373,152 L373,153 L371,153 L371,152 Z" id="Combined-Shape-Copy-57" fill="#252525"></path>
                <path d="M586.022997,491 L586.022988,489.013401 C586.09267,489.015691 586.151144,489.01802 586.217024,489.019871 C587.084022,489.044232 588.221952,489.005755 589.544929,488.852378 C591.527191,488.622567 593.480595,488.177011 595.298332,487.467854 C600.681033,485.367893 603.945452,481.408026 604.240829,475 L586,475 L586,473 L605.97821,473 L605.97821,474.032471 L606,474.032471 C606,481.970171 602.150479,486.906332 595.855894,489.362048 C593.902611,490.124085 591.823359,490.598346 589.718992,490.842313 C589.031687,490.921995 588.390536,490.972416 587.80525,491 L588,491 L588,492 L586,492 L586,491 L586.022997,491 Z M586,472 L588,472 L588,473 L586,473 L586,472 Z" id="Combined-Shape-Copy-46" fill="#252525"></path>
                <path d="M218.022997,646 L218.022988,644.013401 C218.09267,644.015691 218.151144,644.01802 218.217024,644.019871 C219.084022,644.044232 220.221952,644.005755 221.544929,643.852378 C223.527191,643.622567 225.480595,643.177011 227.298332,642.467854 C232.681033,640.367893 235.945452,636.408026 236.240829,630 L218,630 L218,628 L237.97821,628 L237.97821,629.032471 L238,629.032471 C238,636.970171 234.150479,641.906332 227.855894,644.362048 C225.902611,645.124085 223.823359,645.598346 221.718992,645.842313 C221.031687,645.921995 220.390536,645.972416 219.80525,646 L220,646 L220,647 L218,647 L218,646 L218.022997,646 Z M218,627 L220,627 L220,628 L218,628 L218,627 Z" id="Combined-Shape-Copy-42" fill="#252525" transform="translate(228.000000, 637.000000) scale(-1, 1) translate(-228.000000, -637.000000) "></path>
                <g id="Дверь-1" transform="translate(545.000000, 725.000000)" fill="#252525">
                    <path d="M0.0229965584,19 L0.022988329,17.0134008 C0.0926696452,17.0156912 0.151143829,17.0180198 0.217023518,17.0198709 C1.08402214,17.0442321 2.22195237,17.0057553 3.5449294,16.8523777 C5.52719141,16.6225669 7.48059501,16.177011 9.29833214,15.4678544 C14.6810327,13.367893 17.9454516,9.40802638 18.2408286,3 L0,3 L0,1 L19.9782103,1 L19.9782103,2.0324707 L20,2.0324707 C20,9.97017113 16.1504793,14.9063317 9.85589394,17.3620482 C7.90261142,18.1240854 5.8233586,18.5983464 3.71899221,18.8423133 C3.03168718,18.9219951 2.39053559,18.9724163 1.80524987,19 L2,19 L2,20 L0,20 L0,19 L0.0229965584,19 Z M0,0 L2,0 L2,1 L0,1 L0,0 Z" id="Combined-Shape-Copy-4" transform="translate(10.000000, 10.000000) scale(1, -1) rotate(-270.000000) translate(-10.000000, -10.000000) "></path>
                </g>
                <g id="Дверь-1" transform="translate(444.000000, 735.000000) scale(-1, 1) translate(-444.000000, -735.000000) translate(434.000000, 725.000000)" fill="#252525">
                    <path d="M0.0229965584,19 L0.022988329,17.0134008 C0.0926696452,17.0156912 0.151143829,17.0180198 0.217023518,17.0198709 C1.08402214,17.0442321 2.22195237,17.0057553 3.5449294,16.8523777 C5.52719141,16.6225669 7.48059501,16.177011 9.29833214,15.4678544 C14.6810327,13.367893 17.9454516,9.40802638 18.2408286,3 L0,3 L0,1 L19.9782103,1 L19.9782103,2.0324707 L20,2.0324707 C20,9.97017113 16.1504793,14.9063317 9.85589394,17.3620482 C7.90261142,18.1240854 5.8233586,18.5983464 3.71899221,18.8423133 C3.03168718,18.9219951 2.39053559,18.9724163 1.80524987,19 L2,19 L2,20 L0,20 L0,19 L0.0229965584,19 Z M0,0 L2,0 L2,1 L0,1 L0,0 Z" id="Combined-Shape-Copy-4" transform="translate(10.000000, 10.000000) scale(1, -1) rotate(-270.000000) translate(-10.000000, -10.000000) "></path>
                </g>
                <g id="Дверь-1" transform="translate(201.000000, 681.000000)" fill="#252525">
                    <path d="M0.0229965584,19 L0.022988329,17.0134008 C0.0926696452,17.0156912 0.151143829,17.0180198 0.217023518,17.0198709 C1.08402214,17.0442321 2.22195237,17.0057553 3.5449294,16.8523777 C5.52719141,16.6225669 7.48059501,16.177011 9.29833214,15.4678544 C14.6810327,13.367893 17.9454516,9.40802638 18.2408286,3 L0,3 L0,1 L19.9782103,1 L19.9782103,2.0324707 L20,2.0324707 C20,9.97017113 16.1504793,14.9063317 9.85589394,17.3620482 C7.90261142,18.1240854 5.8233586,18.5983464 3.71899221,18.8423133 C3.03168718,18.9219951 2.39053559,18.9724163 1.80524987,19 L2,19 L2,20 L0,20 L0,19 L0.0229965584,19 Z M0,0 L2,0 L2,1 L0,1 L0,0 Z" id="Combined-Shape-Copy-4" transform="translate(10.000000, 10.000000) scale(1, -1) rotate(-270.000000) translate(-10.000000, -10.000000) "></path>
                </g>
                <path d="M662.022997,167 L662.022988,165.013401 C662.09267,165.015691 662.151144,165.01802 662.217024,165.019871 C663.084022,165.044232 664.221952,165.005755 665.544929,164.852378 C667.527191,164.622567 669.480595,164.177011 671.298332,163.467854 C676.681033,161.367893 679.945452,157.408026 680.240829,151 L662,151 L662,149 L681.97821,149 L681.97821,150.032471 L682,150.032471 C682,157.970171 678.150479,162.906332 671.855894,165.362048 C669.902611,166.124085 667.823359,166.598346 665.718992,166.842313 C665.031687,166.921995 664.390536,166.972416 663.80525,167 L664,167 L664,168 L662,168 L662,167 L662.022997,167 Z M662,148 L664,148 L664,149 L662,149 L662,148 Z" id="Combined-Shape-Copy-58" fill="#252525" transform="translate(672.000000, 158.000000) rotate(-180.000000) translate(-672.000000, -158.000000) "></path>
                <path d="M604.022997,83 L604.022988,81.0134008 C604.09267,81.0156912 604.151144,81.0180198 604.217024,81.0198709 C605.084022,81.0442321 606.221952,81.0057553 607.544929,80.8523777 C609.527191,80.6225669 611.480595,80.177011 613.298332,79.4678544 C618.681033,77.367893 621.945452,73.4080264 622.240829,67 L604,67 L604,65 L623.97821,65 L623.97821,66.0324707 L624,66.0324707 C624,73.9701711 620.150479,78.9063317 613.855894,81.3620482 C611.902611,82.1240854 609.823359,82.5983464 607.718992,82.8423133 C607.031687,82.9219951 606.390536,82.9724163 605.80525,83 L606,83 L606,84 L604,84 L604,83 L604.022997,83 Z M604,64 L606,64 L606,65 L604,65 L604,64 Z" id="Combined-Shape-Copy-65" fill="#252525" transform="translate(614.000000, 74.000000) scale(1, -1) rotate(-90.000000) translate(-614.000000, -74.000000) "></path>
                <rect id="Rectangle-6" fill="#252525" x="206" y="156" width="5" height="5"></rect>
                <rect id="Rectangle-6-Copy-2" fill="#252525" x="58" y="292" width="201" height="5"></rect>
                <rect id="Rectangle-12" fill="#252525" x="279" y="292" width="5" height="5"></rect>
                <path d="M146,268 L146,292 L141,292 L141,235 L146,235 L146,239 L167,239 L167,244 L158,244 L158,292 L153,292 L153,268 L146,268 Z M146,263 L146,244 L153,244 L153,263 L146,263 Z M207,241.5 L207,292 L202,292 L202,244 L187,244 L187,239 L207,239 L207,241.5 Z" id="Combined-Shape" fill="#252525"></path>
                <path d="M231,156 L235,156 L235,161 L231,161 L231,156 Z M235,71 L240,71 L240,217 L235,217 L235,71 Z" id="Combined-Shape" fill="#252525"></path>
                <rect id="Rectangle-8" fill="#252525" x="235" y="237" width="5" height="55"></rect>
                <rect id="Rectangle-11" fill="#252525" x="141" y="551" width="5" height="3"></rect>
                <rect id="Rectangle-11-Copy" fill="#252525" x="190" y="464" width="5" height="3"></rect>
                <rect id="Rectangle-11-Copy-2" fill="#252525" transform="translate(280.000000, 469.500000) rotate(-90.000000) translate(-280.000000, -469.500000) " x="277.5" y="465.5" width="5" height="8"></rect>
                <rect id="Rectangle-11-Copy" fill="#252525" x="190" y="297" width="5" height="4"></rect>
                <rect id="Rectangle-8-Copy" fill="#252525" x="318" y="52" width="5" height="158"></rect>
                <path d="M241.5,2.84217094e-14 L239,2.84217094e-14 L239,37 L244,37 L244,5 L402,5 L402,12 L407,12 L407,2.5 L407,2.96414044e-14 L241.5,-7.60452404e-16 Z" id="Combined-Shape" fill="#252525"></path>
                <rect id="Rectangle-8-Copy-9" fill="#252525" x="369" y="52" width="5" height="100"></rect>
                <rect id="Rectangle-8-Copy-10" fill="#252525" x="369" y="172" width="5" height="38"></rect>
                <rect id="Rectangle-8-Copy-12" fill="#252525" transform="translate(392.000000, 140.500000) rotate(-270.000000) translate(-392.000000, -140.500000) " x="389.5" y="117.5" width="5" height="46"></rect>
                <rect id="Rectangle-8-Copy-13" fill="#252525" transform="translate(438.500000, 115.500000) rotate(-270.000000) translate(-438.500000, -115.500000) " x="436" y="87" width="5" height="57"></rect>
                <rect id="Rectangle-8-Copy-13" fill="#252525" transform="translate(438.500000, 127.500000) rotate(-270.000000) translate(-438.500000, -127.500000) " x="436" y="99" width="5" height="57"></rect>
                <rect id="Rectangle-8-Copy-15" fill="#252525" transform="translate(438.500000, 158.500000) rotate(-270.000000) translate(-438.500000, -158.500000) " x="436" y="130" width="5" height="57"></rect>
                <rect id="Rectangle-8-Copy-18" fill="#252525" transform="translate(469.500000, 125.500000) rotate(-270.000000) translate(-469.500000, -125.500000) " x="467" y="118" width="5" height="15"></rect>
                <rect id="Rectangle-8-Copy-19" fill="#252525" transform="translate(502.000000, 146.500000) rotate(-270.000000) translate(-502.000000, -146.500000) " x="499.5" y="141.5" width="5" height="10"></rect>
                <rect id="Rectangle-8-Copy-20" fill="#252525" transform="translate(556.000000, 146.500000) rotate(-270.000000) translate(-556.000000, -146.500000) " x="553.5" y="117.5" width="5" height="58"></rect>
                <rect id="Rectangle-8-Copy-23" fill="#252525" transform="translate(633.500000, 170.500000) rotate(-270.000000) translate(-633.500000, -170.500000) " x="631" y="122" width="5" height="97"></rect>
                <rect id="Rectangle-8-Copy-24" fill="#252525" transform="translate(701.500000, 145.500000) rotate(-270.000000) translate(-701.500000, -145.500000) " x="699" y="124" width="5" height="43"></rect>
                <rect id="Rectangle-8-Copy-11" fill="#252525" x="410" y="113" width="5" height="97"></rect>
                <rect id="Rectangle-8-Copy-14" fill="#252525" x="462" y="113" width="5" height="20"></rect>
                <rect id="Rectangle-8-Copy-21" fill="#252525" x="497" y="27" width="5" height="122"></rect>
                <path d="M497.979381,767 L502.979381,767 L502.979381,795 L497.979381,795 L497.979381,767 Z M427.979381,773.5 L432.979381,773.5 L432.979381,795 L427.979381,795 L427.979381,773.5 Z M570.979381,761 L575.979381,761 L575.979381,795 L570.979381,795 L570.979381,761 Z M593.979381,795 L598.979381,795 L598.979381,752 L410,769 L410,795 L415,795 L415,773.660341 L593.979381,757.212472 L593.979381,795 Z" id="Combined-Shape" fill="#252525" transform="translate(504.489690, 773.500000) scale(1, -1) translate(-504.489690, -773.500000) "></path>
                <path d="M13.9896903,467.98969 L18.9896903,467.98969 L18.9896903,495.98969 L13.9896903,495.98969 L13.9896903,467.98969 Z M-55.0103097,474.48969 L-50.0103097,474.48969 L-50.0103097,495.98969 L-55.0103097,495.98969 L-55.0103097,474.48969 Z M87.9896903,461.98969 L92.9896903,461.98969 L92.9896903,495.98969 L87.9896903,495.98969 L87.9896903,461.98969 Z M110.98969,495.98969 L115.98969,495.98969 L115.98969,452.98969 L-72.9896903,469.98969 L-72.9896903,495.98969 L-67.9896903,495.98969 L-67.9896903,474.650031 L110.98969,458.202163 L110.98969,495.98969 Z" id="Combined-Shape" fill="#252525" transform="translate(21.500000, 474.489690) scale(-1, 1) rotate(-270.000000) translate(-21.500000, -474.489690) "></path>
                <rect id="Rectangle-8-Copy-22" fill="#252525" x="585" y="71" width="5" height="102"></rect>
                <rect id="Rectangle-8-Copy-16" fill="#252525" x="462" y="153" width="5" height="23"></rect>
                <rect id="Rectangle-8-Copy-17" fill="#252525" x="462" y="196" width="5" height="14"></rect>
                <rect id="Rectangle-17" fill="#252525" x="645" y="584" width="5" height="10"></rect>
                <rect id="Rectangle-17-Copy" fill="#252525" x="645" y="559" width="5" height="5"></rect>
                <g id="Окно-44*15-верт" transform="translate(43.000000, 404.000000)" fill="#252525">
                    <g id="Окно-44*15" transform="translate(7.500000, 22.000000) rotate(-270.000000) translate(-7.500000, -22.000000) translate(-14.500000, 14.500000)">
                        <path d="M43,1 L1,1 L1,14 L43,14 L43,1 Z M44,15 L0,15 L0,0 L44,0 L44,15 Z" id="Rectangle-2-Copy-31"></path>
                    </g>
                </g>
                <path d="M666.671656,46.0238889 L666.671656,51.0238889 L647.671656,51.0238889 L647.671656,46.0238889 L666.671656,46.0238889 Z M686.914949,106.682372 L691.682372,105.175161 L647.702857,-33.9354342 L642.935434,-32.4282239 L686.914949,106.682372 Z" id="Combined-Shape" fill="#252525" transform="translate(667.308903, 36.373469) scale(-1, 1) rotate(-90.000000) translate(-667.308903, -36.373469) "></path>
                <path d="M66.7244798,136.627578 L66.7244798,141.627578 L47.7244798,141.627578 L47.7244798,136.627578 L66.7244798,136.627578 Z M43,57.5072103 L86.6953888,196.634537 L91.4628113,195.127326 L47.7674225,56 L43,57.5072103 Z" id="Combined-Shape-Copy-63" fill="#252525" transform="translate(67.231406, 126.317268) scale(-1, 1) rotate(-360.000000) translate(-67.231406, -126.317268) "></path>
                <path d="M155.810343,737.541715 L155.810343,742.541715 L136.810343,742.541715 L136.810343,737.541715 L155.810343,737.541715 Z M132.085863,658.421348 L175.781252,797.548674 L180.548674,796.041464 L136.853285,656.914137 L132.085863,658.421348 Z" id="Combined-Shape-Copy-64" fill="#252525" transform="translate(156.317268, 727.231406) scale(-1, 1) rotate(-270.000000) translate(-156.317268, -727.231406) "></path>
                <path d="M756.810343,647.541715 L756.810343,652.541715 L737.810343,652.541715 L737.810343,647.541715 L756.810343,647.541715 Z M733.085863,568.421348 L776.781252,707.548674 L781.548674,706.041464 L737.853285,566.914137 L733.085863,568.421348 Z" id="Combined-Shape-Copy-64" fill="#252525" transform="translate(757.317268, 637.231406) scale(-1, 1) rotate(-180.000000) translate(-757.317268, -637.231406) "></path>
                <g id="Окно-36*15-верт" transform="translate(86.000000, 573.000000)" fill="#252525">
                    <path d="M1,1 L1,35 L14,35 L14,1 L1,1 Z M15,0 L15,36 L0,36 L0,0 L15,0 Z" id="Rectangle-2-Copy-3"></path>
                </g>
                <g id="Окно-24*15" transform="translate(624.000000, 56.000000)" fill="#252525">
                    <path d="M23,1 L1,1 L1,14 L23,14 L23,1 Z M24,15 L0,15 L0,0 L24,0 L24,15 Z" id="Rectangle-2-Copy-27"></path>
                </g>
                <g id="Окно-36*15-верт" transform="translate(723.000000, 155.000000)" fill="#252525">
                    <path d="M1,1 L1,35 L14,35 L14,1 L1,1 Z M15,0 L15,36 L0,36 L0,0 L15,0 Z" id="Rectangle-2-Copy-3"></path>
                </g>
                <g id="Окно-24*15-верт" transform="translate(767.000000, 249.000000)" fill="#252525">
                    <g id="Окно-24*15" transform="translate(7.500000, 12.000000) rotate(-270.000000) translate(-7.500000, -12.000000) translate(-4.500000, 4.500000)">
                        <path d="M23,1 L1,1 L1,14 L23,14 L23,1 Z M24,15 L0,15 L0,0 L24,0 L24,15 Z" id="Rectangle-2-Copy-27"></path>
                    </g>
                </g>
                <g id="Окно-24*15-верт" transform="translate(767.000000, 317.000000)" fill="#252525">
                    <g id="Окно-24*15" transform="translate(7.500000, 12.000000) rotate(-270.000000) translate(-7.500000, -12.000000) translate(-4.500000, 4.500000)">
                        <path d="M23,1 L1,1 L1,14 L23,14 L23,1 Z M24,15 L0,15 L0,0 L24,0 L24,15 Z" id="Rectangle-2-Copy-27"></path>
                    </g>
                </g>
                <rect id="Rectangle-18" fill="#252525" x="782" y="290" width="10" height="5"></rect>
                <g id="Окно-44*15-верт" transform="translate(767.000000, 404.000000)" fill="#252525">
                    <g id="Окно-44*15" transform="translate(7.500000, 22.000000) rotate(-270.000000) translate(-7.500000, -22.000000) translate(-14.500000, 14.500000)">
                        <path d="M43,1 L1,1 L1,14 L43,14 L43,1 Z M44,15 L0,15 L0,0 L44,0 L44,15 Z" id="Rectangle-2-Copy-31"></path>
                    </g>
                </g>
                <g id="Окно-44*15-верт" transform="translate(767.000000, 491.000000)" fill="#252525">
                    <g id="Окно-44*15" transform="translate(7.500000, 22.000000) rotate(-270.000000) translate(-7.500000, -22.000000) translate(-14.500000, 14.500000)">
                        <path d="M43,1 L1,1 L1,14 L43,14 L43,1 Z M44,15 L0,15 L0,0 L44,0 L44,15 Z" id="Rectangle-2-Copy-31"></path>
                    </g>
                </g>
                <g id="Окно-44*15" transform="translate(435.000000, 12.000000)" fill="#252525">
                    <path d="M43,1 L1,1 L1,14 L43,14 L43,1 Z M44,15 L0,15 L0,0 L44,0 L44,15 Z" id="Rectangle-2-Copy-31"></path>
                </g>
                <g id="Окно-44*15" transform="translate(521.000000, 12.000000)" fill="#252525">
                    <path d="M43,1 L1,1 L1,14 L43,14 L43,1 Z M44,15 L0,15 L0,0 L44,0 L44,15 Z" id="Rectangle-2-Copy-31"></path>
                </g>
                <g id="Окно-36*15" transform="translate(603.000000, 693.000000)" fill="#252525">
                    <g id="Окно-36*15-верт" transform="translate(18.000000, 7.500000) rotate(-270.000000) translate(-18.000000, -7.500000) translate(10.500000, -10.500000)">
                        <path d="M1,1 L1,35 L14,35 L14,1 L1,1 Z M15,0 L15,36 L0,36 L0,0 L15,0 Z" id="Rectangle-2-Copy-3"></path>
                    </g>
                </g>
                <g id="Окно-44*15" transform="translate(347.000000, 737.000000)" fill="#252525">
                    <path d="M43,1 L1,1 L1,14 L43,14 L43,1 Z M44,15 L0,15 L0,0 L44,0 L44,15 Z" id="Rectangle-2-Copy-31"></path>
                </g>
                <g id="Окно-44*15" transform="translate(259.000000, 737.000000)" fill="#252525">
                    <path d="M43,1 L1,1 L1,14 L43,14 L43,1 Z M44,15 L0,15 L0,0 L44,0 L44,15 Z" id="Rectangle-2-Copy-31"></path>
                </g>
                <use id="Path-5" stroke="#252525" mask="url(#mask-2)" stroke-width="2" xlink:href="#path-1"></use>
                <use id="Path-5" stroke="#252525" mask="url(#mask-4)" stroke-width="2" transform="translate(684.510693, 353.538711) rotate(-90.000000) translate(-684.510693, -353.538711) " xlink:href="#path-3"></use>
                <g id="Окно-44*15-верт" transform="translate(43.000000, 316.000000)" fill="#252525">
                    <g id="Окно-44*15" transform="translate(7.500000, 22.000000) rotate(-270.000000) translate(-7.500000, -22.000000) translate(-14.500000, 14.500000)">
                        <path d="M43,1 L1,1 L1,14 L43,14 L43,1 Z M44,15 L0,15 L0,0 L44,0 L44,15 Z" id="Rectangle-2-Copy-31"></path>
                    </g>
                </g>
                <g id="Окно-44*15-верт" transform="translate(43.000000, 229.000000)" fill="#252525">
                    <g id="Окно-44*15" transform="translate(7.500000, 22.000000) rotate(-270.000000) translate(-7.500000, -22.000000) translate(-14.500000, 14.500000)">
                        <path d="M43,1 L1,1 L1,14 L43,14 L43,1 Z M44,15 L0,15 L0,0 L44,0 L44,15 Z" id="Rectangle-2-Copy-31"></path>
                    </g>
                </g>
                <g id="Окно-44*15" transform="translate(177.000000, 56.000000)" fill="#252525">
                    <path d="M43,1 L1,1 L1,14 L43,14 L43,1 Z M44,15 L0,15 L0,0 L44,0 L44,15 Z" id="Rectangle-2-Copy-31"></path>
                </g>
                <use id="Path-5" stroke="#252525" mask="url(#mask-6)" stroke-width="2" transform="translate(158.000000, 351.544252) scale(-1, 1) rotate(-90.000000) translate(-158.000000, -351.544252) " xlink:href="#path-5"></use>
                <use id="Path-5" stroke="#252525" mask="url(#mask-8)" stroke-width="2" transform="translate(158.000000, 413.544252) scale(-1, -1) rotate(-90.000000) translate(-158.000000, -413.544252) " xlink:href="#path-7"></use>
            </g>
        </g>
    </g>
</svg>