<?xml version="1.0" encoding="UTF-8" standalone="no"?>
<svg width="13px" height="16px" viewBox="0 0 13 16" version="1.1" xmlns="http://www.w3.org/2000/svg" xmlns:xlink="http://www.w3.org/1999/xlink">
    <!-- Generator: sketchtool 39.1 (31720) - http://www.bohemiancoding.com/sketch -->
    <title>5377E939-0838-4BB6-B3D3-F5DDB7737FFF</title>
    <desc>Created with sketchtool.</desc>
    <defs></defs>
    <g id="Page-1" stroke="none" stroke-width="1" fill="none" fill-rule="evenodd">
        <g id="Главная-страница" transform="translate(-618.000000, -1401.000000)" fill="#252525">
            <g id="Блок-2" transform="translate(0.000000, 768.000000)">
                <g id="Текстовый-блок" transform="translate(354.000000, 152.000000)">
                    <g id="Кнопка-Скачать-планы" transform="translate(227.000000, 463.000000)">
                        <g id="Group-5" transform="translate(37.000000, 18.000000)">
                            <path d="M7.42006722,9.0413826 L0.0434643247,9.0413826 C-0.532825109,9.0413826 -1,8.57796365 -1,7.99732835 C-1,7.42071312 -0.529795242,6.95327411 0.0434643247,6.95327411 L7.47036422,6.95327411 L5.04779936,4.53070924 C4.63954737,4.12245726 4.63628043,3.46381695 5.04685159,3.0532458 C5.45458013,2.64551725 6.12188063,2.65175917 6.52431503,3.05419357 L10.7002392,7.23011775 C11.0254344,7.55531291 11.0936666,8.03937942 10.9004614,8.43038989 C10.8319095,8.58001154 10.7290246,8.7106899 10.6021079,8.81237331 L6.50661484,12.9078663 C6.09836285,13.3161183 5.43972255,13.3193853 5.02915139,12.9088141 C4.62142285,12.5010856 4.62766476,11.8337851 5.03009916,11.4313507 L7.42006722,9.0413826 Z M12.9973284,2 C13.5739436,2 14.0413826,2.47020476 14.0413826,3.04346432 L14.0413826,12.9511924 C14.0413826,13.5274818 13.5779636,13.9946567 12.9973284,13.9946567 C12.4207131,13.9946567 11.9532741,13.5244519 11.9532741,12.9511924 L11.9532741,3.04346432 C11.9532741,2.46717489 12.4166931,2 12.9973284,2 Z" id="Combined-Shape" transform="translate(6.520691, 7.997328) rotate(-270.000000) translate(-6.520691, -7.997328) "></path>
                        </g>
                    </g>
                </g>
            </g>
        </g>
    </g>
</svg>