<?xml version="1.0" encoding="UTF-8" standalone="no"?>
<!-- Created with Inkscape (http://www.inkscape.org/) -->

<svg
   xmlns:dc="http://purl.org/dc/elements/1.1/"
   xmlns:cc="http://creativecommons.org/ns#"
   xmlns:rdf="http://www.w3.org/1999/02/22-rdf-syntax-ns#"
   xmlns:svg="http://www.w3.org/2000/svg"
   xmlns="http://www.w3.org/2000/svg"
   xmlns:sodipodi="http://sodipodi.sourceforge.net/DTD/sodipodi-0.dtd"
   xmlns:inkscape="http://www.inkscape.org/namespaces/inkscape"
   id="svg3448"
   version="1.1"
   inkscape:version="0.91 r13725"
   width="155"
   height="165"
   viewBox="0 0 155 165"
   sodipodi:docname="3.svg">
  <metadata
     id="metadata3454">
    <rdf:RDF>
      <cc:Work
         rdf:about="">
        <dc:format>image/svg+xml</dc:format>
        <dc:type
           rdf:resource="http://purl.org/dc/dcmitype/StillImage" />
        <dc:title></dc:title>
      </cc:Work>
    </rdf:RDF>
  </metadata>
  <defs
     id="defs3452" />
  <sodipodi:namedview
     pagecolor="#ffffff"
     bordercolor="#666666"
     borderopacity="1"
     objecttolerance="10"
     gridtolerance="10"
     guidetolerance="10"
     inkscape:pageopacity="0"
     inkscape:pageshadow="2"
     inkscape:window-width="640"
     inkscape:window-height="480"
     id="namedview3450"
     showgrid="false"
     inkscape:zoom="1.430303"
     inkscape:cx="77.499998"
     inkscape:cy="82.499998"
     inkscape:window-x="178"
     inkscape:window-y="50"
     inkscape:window-maximized="0"
     inkscape:current-layer="svg3448" />
  <path
     style="fill:#cccccc"
     d="m 28.421613,144.56609 c -7.00031,-3.84971 -6.81708,-2.26524 -6.8472,-59.208512 -0.0308,-58.255108 -0.26368,-56.55279 8.22042,-60.09767 6.00243,-2.507974 63.75114,-2.507974 69.75356,0 8.484097,3.54488 8.251247,1.842562 8.220427,60.09767 -0.0302,57.162852 0.16103,55.561222 -7.07753,59.263062 -3.731077,1.90809 -68.790097,1.85898 -72.269677,-0.0545 z m 71.639297,-6.09785 c 2.72757,-2.54111 2.7357,-2.69973 2.7357,-53.339062 0,-45.506827 -0.2152,-51.028174 -2.06873,-53.076303 -1.906907,-2.10711 -4.710407,-2.285926 -35.839067,-2.285926 -29.66951,0 -34.04793,0.251212 -36.05627,2.068735 -2.14349,1.939832 -2.28593,5.250009 -2.28593,53.125004 0,49.389592 0.0816,51.137862 2.5,53.556252 2.37331,2.37331 4.16667,2.5 35.3893,2.5 31.37094,0 33.01559,-0.11763 35.624997,-2.5487 z m -62.032887,-8.53183 c -1.06211,-0.67352 -1.50434,-2.98845 -1.25,-6.54336 l 0.39359,-5.50111 6.25,0 6.25,0 0.39359,5.50111 c 0.44105,6.16446 -0.80361,7.5856 -6.64359,7.5856 -2.0625,0 -4.48961,-0.469 -5.39359,-1.04224 z m 21.09099,-0.70723 c -0.81604,-0.98328 -1.30679,-3.9364 -1.09055,-6.5625 l 0.39315,-4.77474 6.25,0 6.25,0 0.39316,4.77474 c 0.49059,5.95805 -1.41256,8.35026 -6.64316,8.35026 -2.23788,0 -4.73655,-0.8045 -5.5526,-1.78776 z m 21.40902,0.70723 c -1.06212,-0.67352 -1.50435,-2.98845 -1.25,-6.54336 l 0.39358,-5.50111 6.25,0 6.25,0 0.39359,5.50111 c 0.44105,6.16446 -0.80361,7.5856 -6.64359,7.5856 -2.0625,0 -4.48961,-0.469 -5.39358,-1.04224 z M 37.075573,110.5924 c -0.38255,-0.9969 -0.51744,-3.98107 -0.29975,-6.6315 l 0.39579,-4.818952 6.25,0 6.25,0 0,6.250002 0,6.24999 -5.95025,0.38151 c -4.30946,0.2763 -6.14204,-0.11837 -6.64579,-1.43105 z m 22.04344,-0.11322 c -0.81604,-0.98327 -1.30679,-3.93639 -1.09055,-6.56249 l 0.39315,-4.774742 6.25,0 6.25,0 0.39316,4.774742 c 0.49059,5.95804 -1.41256,8.35025 -6.64316,8.35025 -2.23788,0 -4.73655,-0.8045 -5.5526,-1.78776 z m 20.45656,0.11322 c -0.38255,-0.9969 -0.51744,-3.98107 -0.29975,-6.6315 l 0.39579,-4.818952 6.25,0 6.25,0 0,6.250002 0,6.24999 -5.95025,0.38151 c -4.30946,0.2763 -6.14204,-0.11837 -6.64579,-1.43105 z m -42.5,-18.749992 c -0.38255,-0.99691 -0.51744,-3.98108 -0.29975,-6.63151 l 0.39579,-4.818949 6.25,0 6.25,0 0,6.249999 0,6.25 -5.95025,0.38151 c -4.30946,0.27631 -6.14204,-0.1183 -6.64579,-1.43105 z m 21.22352,-0.069 c -0.36798,-0.95895 -0.49096,-3.91208 -0.27327,-6.5625 0.38869,-4.732411 0.49458,-4.826019 5.89691,-5.21254 6.05333,-0.433098 7.57366,0.812161 7.60474,6.22885 0.0351,6.11791 -1.09478,7.28974 -7.02882,7.28974 -3.57757,0 -5.76676,-0.61568 -6.19956,-1.74355 z m 21.27648,0.069 c -0.38255,-0.99691 -0.51744,-3.98108 -0.29975,-6.63151 l 0.39579,-4.818949 6.25,0 6.25,0 0,6.249999 0,6.25 -5.95025,0.38151 c -4.30946,0.27631 -6.14204,-0.1183 -6.64579,-1.43105 z M 43.242863,71.070053 c -4.87306,-2.043983 -6.69625,-6.244393 -6.69625,-15.42739 0,-7.803252 0.32614,-8.894159 3.65385,-12.221868 l 3.65385,-3.653846 20.8173,0 20.81731,0 3.65385,3.653846 c 3.34458,3.344589 3.65384,4.396676 3.65384,12.430295 0,7.472214 -0.44788,9.297643 -3.0139,12.283654 l -3.0139,3.507205 -20.4236,0.275846 c -11.23298,0.151715 -21.62903,-0.229769 -23.10235,-0.847742 z m 43.25977,-7.470928 c 2.26621,-4.234452 1.5785,-13.547662 -1.20602,-16.332176 -2.27011,-2.270115 -4.16666,-2.5 -20.625,-2.5 -16.45833,0 -18.35488,0.229885 -20.625,2.5 -1.76992,1.769925 -2.5,4.166666 -2.5,8.207176 0,10.647493 -0.22958,10.542824 23.125,10.542824 19.02505,0 20.63231,-0.178006 21.83102,-2.417824 z m 25.043977,30.050183 c 0,-2.09055 1.18336,-2.42139 10.11123,-2.82682 12.38524,-0.56245 13.63877,-1.77284 13.63877,-13.169451 l 0,-7.886088 -11.875,0 -11.875,0 0,-6.875 0,-6.875 11.875,0 c 12.5175,0 13.76699,-0.684734 10.18599,-5.582037 -1.3291,-1.817659 -3.85951,-2.435509 -11.875,-2.899519 -8.90951,-0.515764 -10.18599,-0.882824 -10.18599,-2.92905 0,-2.07928 1.0493,-2.339394 9.43708,-2.339394 10.72524,0 16.26471,2.145335 18.11662,7.016245 1.74626,4.593026 1.51299,35.921064 -0.29706,39.893684 -2.26045,4.96117 -7.15533,6.84007 -17.81956,6.84007 -8.4279,0 -9.43708,-0.25319 -9.43708,-2.36764 z"
     id="path3460"
     inkscape:connector-curvature="0" />
  <path
     style="fill:#000000"
     d=""
     id="path3458"
     inkscape:connector-curvature="0" />
</svg>
