<?xml version="1.0" encoding="UTF-8" standalone="no"?>
<!-- Created with Inkscape (http://www.inkscape.org/) -->

<svg
   xmlns:dc="http://purl.org/dc/elements/1.1/"
   xmlns:cc="http://creativecommons.org/ns#"
   xmlns:rdf="http://www.w3.org/1999/02/22-rdf-syntax-ns#"
   xmlns:svg="http://www.w3.org/2000/svg"
   xmlns="http://www.w3.org/2000/svg"
   xmlns:sodipodi="http://sodipodi.sourceforge.net/DTD/sodipodi-0.dtd"
   xmlns:inkscape="http://www.inkscape.org/namespaces/inkscape"
   id="svg3374"
   version="1.1"
   inkscape:version="0.91 r13725"
   width="160"
   height="157.5"
   viewBox="0 0 160 157.5"
   sodipodi:docname="1.svg">
  <metadata
     id="metadata3380">
    <rdf:RDF>
      <cc:Work
         rdf:about="">
        <dc:format>image/svg+xml</dc:format>
        <dc:type
           rdf:resource="http://purl.org/dc/dcmitype/StillImage" />
        <dc:title></dc:title>
      </cc:Work>
    </rdf:RDF>
  </metadata>
  <defs
     id="defs3378" />
  <sodipodi:namedview
     pagecolor="#ffffff"
     bordercolor="#666666"
     borderopacity="1"
     objecttolerance="10"
     gridtolerance="10"
     guidetolerance="10"
     inkscape:pageopacity="0"
     inkscape:pageshadow="2"
     inkscape:window-width="640"
     inkscape:window-height="480"
     id="namedview3376"
     showgrid="false"
     inkscape:zoom="1.4984127"
     inkscape:cx="80"
     inkscape:cy="78.75"
     inkscape:window-x="223"
     inkscape:window-y="104"
     inkscape:window-maximized="0"
     inkscape:current-layer="svg3374" />
  <path
     style="fill:#cccccc"
     d="m 64.359108,127.93848 -19.687498,-13.8861 -0.02684,-8.17025 -0.02684,-8.170262 -8.103886,-5.724713 -8.103887,-5.72471 7.505724,-10.521081 c 4.128149,-5.786595 7.501772,-10.804226 7.49694,-11.150291 -0.0049,-0.346065 -3.361577,-4.838087 -7.459437,-9.982272 -4.09786,-5.144183 -7.047033,-9.71369 -6.553717,-10.154457 0.493316,-0.440769 10.29817,-7.054439 21.788566,-14.697045 l 20.89163,-13.895647 6.03655,9.367351 6.03656,9.36735 6.52491,-9.385606 6.52491,-9.385607 17.796897,12.870392 c 9.7883,7.078715 19.09245,13.76464 20.67588,14.857611 l 2.87898,1.98722 -7.56648,8.769549 c -4.16156,4.823251 -7.56647,9.429064 -7.56647,10.235141 0,0.806076 3.67806,6.175882 8.17347,11.932902 l 8.17347,10.46731 -9.42347,6.358893 -9.42347,6.35889 0,7.358632 0,7.35863 -17.1875,13.00291 c -9.453117,7.1516 -17.749997,13.32656 -18.437497,13.72214 -0.6875,0.39557 -10.10937,-5.52953 -20.9375,-13.16688 z m 51.530992,-20.64883 0.0315,-4.17223 -7.8125,5.519 c -4.29687,3.03545 -8.510812,5.92754 -9.364302,6.42688 -1.02609,0.60032 -3.2453,-1.76157 -6.55063,-6.97177 l -4.99881,-7.87966 -0.0119,17.2124 -0.0119,17.21241 14.343492,-11.58741 c 13.06882,-10.55765 14.3463,-11.95818 14.375,-15.75962 z m -33.718492,9.79722 c 0,-8.9375 -0.24052,-16.25 -0.53449,-16.25 -0.29398,0 -2.5847,3.375 -5.09051,7.5 -2.5058,4.125 -4.85019,7.5 -5.20974,7.5 -0.35955,0 -5.14493,-3.09375 -10.63416,-6.875 -5.48923,-3.78125 -10.21683,-6.875 -10.50576,-6.875 -0.28894,0 -0.49802,2.10938 -0.46462,4.6875 0.0584,4.51227 0.60749,5.09247 14.6875,15.52075 8.04473,5.95828 15.32991,10.88015 16.18928,10.9375 1.17522,0.0784 1.5625,-3.92347 1.5625,-16.14575 z m -6.62488,-17.455602 5.23716,-8.705598 -15.50482,-10.652297 c -8.52765,-5.858764 -16.05326,-10.80062 -16.723582,-10.981903 -0.670317,-0.181283 -3.767142,3.267436 -6.881831,7.66382 l -5.663071,7.993427 16.518014,11.609871 c 9.08491,6.385422 16.80218,11.647762 17.14949,11.694072 0.34732,0.0463 2.9882,-3.83331 5.86864,-8.621392 z m 40.104582,-2.45522 c 8.39867,-5.794702 15.25125,-11.138451 15.22797,-11.875001 -0.0232,-0.736551 -2.86898,-4.879054 -6.32377,-9.205564 l -6.28145,-7.866383 -4.70566,3.491383 c -2.58811,1.92026 -9.28636,6.866381 -14.885012,10.991381 -5.59866,4.125 -10.19791,7.889389 -10.22057,8.365307 -0.0733,1.539894 10.2713,17.366809 11.10801,16.994859 0.445602,-0.19809 7.681822,-5.10128 16.080492,-10.895982 z M 100.10606,75.256996 c 7.32355,-5.475177 13.31555,-10.29445 13.31555,-10.709494 0,-0.834541 -27.986812,-21.210638 -29.133062,-21.210638 -0.39482,0 -7.81539,4.76977 -16.49014,10.599489 l -15.77227,10.599488 5.38523,3.771108 c 22.15066,15.511387 26.79761,18.452729 28.00719,17.727496 0.75457,-0.45242 7.36395,-5.302271 14.687502,-10.777449 z M 61.546608,51.677931 c 14.8575,-9.905382 18.125,-12.356297 18.125,-13.595371 0,-2.486837 -9.17879,-14.6303 -10.47271,-13.85531 -0.77126,0.461943 -8.49122,5.675366 -17.15548,11.585385 l -15.753184,10.74549 5.609408,7.108866 c 3.154212,3.997368 6.219455,6.759229 7.003186,6.310047 0.76658,-0.43935 6.45628,-4.173948 12.64378,-8.299107 z M 129.32746,46.679415 C 129.11829,46.051891 122.0952,40.549963 113.7206,34.452906 l -15.226542,-11.085557 -5.14822,7.581094 c -2.83152,4.169601 -4.86902,7.860294 -4.52778,8.201537 0.34125,0.341245 7.00102,5.327433 14.799502,11.080419 l 14.17905,10.459974 5.95558,-6.435004 c 3.27558,-3.539251 5.78445,-6.948431 5.57527,-7.575954 z"
     id="path3384"
     inkscape:connector-curvature="0" />
</svg>
