<?xml version="1.0" encoding="UTF-8" standalone="no"?>
<!-- Created with Inkscape (http://www.inkscape.org/) -->

<svg
   xmlns:dc="http://purl.org/dc/elements/1.1/"
   xmlns:cc="http://creativecommons.org/ns#"
   xmlns:rdf="http://www.w3.org/1999/02/22-rdf-syntax-ns#"
   xmlns:svg="http://www.w3.org/2000/svg"
   xmlns="http://www.w3.org/2000/svg"
   xmlns:sodipodi="http://sodipodi.sourceforge.net/DTD/sodipodi-0.dtd"
   xmlns:inkscape="http://www.inkscape.org/namespaces/inkscape"
   id="svg3436"
   version="1.1"
   inkscape:version="0.91 r13725"
   width="190"
   height="150"
   viewBox="0 0 190 150"
   sodipodi:docname="2.svg">
  <metadata
     id="metadata3442">
    <rdf:RDF>
      <cc:Work
         rdf:about="">
        <dc:format>image/svg+xml</dc:format>
        <dc:type
           rdf:resource="http://purl.org/dc/dcmitype/StillImage" />
        <dc:title></dc:title>
      </cc:Work>
    </rdf:RDF>
  </metadata>
  <defs
     id="defs3440" />
  <sodipodi:namedview
     pagecolor="#ffffff"
     bordercolor="#666666"
     borderopacity="1"
     objecttolerance="10"
     gridtolerance="10"
     guidetolerance="10"
     inkscape:pageopacity="0"
     inkscape:pageshadow="2"
     inkscape:window-width="640"
     inkscape:window-height="480"
     id="namedview3438"
     showgrid="false"
     inkscape:zoom="1.5733333"
     inkscape:cx="94.999998"
     inkscape:cy="74.999998"
     inkscape:window-x="64"
     inkscape:window-y="8"
     inkscape:window-maximized="0"
     inkscape:current-layer="svg3436" />
  <path
     style="fill:#cdcdcd"
     d="m 152.06642,130.70004 -13.66423,-13.70674 -45.974829,-0.35576 -45.97483,-0.35576 -3.46461,-3.46411 -3.464615,-3.46411 -0.365444,-36.761825 c -0.303397,-30.520221 -0.04575,-37.52697 1.517513,-41.268376 3.443756,-8.242074 4.028366,-8.313543 64.656905,-7.904432 l 53.77326,0.362853 3.64637,4.082221 3.64639,4.08222 0,56.23028 c 0,30.926649 -0.15021,56.230279 -0.33381,56.230279 -0.1836,0 -6.48273,-6.16804 -13.99807,-13.70674 z m 7.27783,-98.991104 c -1.96311,-2.16922 -5.23374,-2.302156 -56.63968,-2.302156 -40.765979,0 -54.935419,0.379157 -56.056269,1.5 -1.10053,1.100536 -1.5,11.567582 -1.5,39.30412 0,37.64868 0.0114,37.81212 2.77814,39.75 2.3897,1.67382 9.07875,1.94588 47.84182,1.94588 l 45.063689,0 9.97067,10.03001 9.97068,10.03001 0.32719,-48.977851 c 0.29557,-44.245663 0.12588,-49.200289 -1.75624,-51.280013 z M 69.466491,80.088599 c -6.41052,-6.410521 -2.00463,-18.181819 6.80529,-18.181819 9.62172,0 14.37396,12.100574 7.18182,18.28699 -4.52006,3.887992 -10.03542,3.846521 -13.98711,-0.105175 z m 10.43181,-3.431819 c 4.24287,-4.242868 -0.74673,-11.311465 -6,-8.5 -3.1035,1.660946 -3.29327,6.913732 -0.3125,8.649876 2.90961,1.694692 4.50584,1.656792 6.3125,-0.149876 z m 15.81819,3.431819 c -6.41052,-6.410521 -2.00463,-18.181819 6.805289,-18.181819 5.73864,0 10.62652,4.887185 10.62652,10.625 0,9.237157 -10.98807,14.000565 -17.431809,7.556819 z M 106.1483,76.65678 c 4.24287,-4.242868 -0.74673,-11.311465 -6,-8.5 -3.103499,1.660946 -3.293269,6.913732 -0.312499,8.649876 2.909609,1.694692 4.505839,1.656792 6.312499,-0.149876 z m 15.81818,3.431819 c -5.83487,-5.834873 -2.8843,-15.67542 5.3173,-17.73389 6.61043,-1.659113 14.07571,5.806161 12.41659,12.416592 -2.05847,8.201598 -11.89902,11.15217 -17.73389,5.317298 z m 10.89589,-4.000554 c 1.25727,-1.137804 2.28593,-2.640386 2.28593,-3.339074 0,-1.875025 -3.89061,-5.842191 -5.72945,-5.842191 -2.10184,0 -5.52055,3.483389 -5.52055,5.625 0,2.038769 3.38117,5.625 5.30336,5.625 0.75613,0 2.40346,-0.93093 3.66071,-2.068735 z"
     id="path3446"
     inkscape:connector-curvature="0" />
</svg>
