<?xml version="1.0" encoding="UTF-8" standalone="no"?>
<!-- Created with Inkscape (http://www.inkscape.org/) -->

<svg
   xmlns:dc="http://purl.org/dc/elements/1.1/"
   xmlns:cc="http://creativecommons.org/ns#"
   xmlns:rdf="http://www.w3.org/1999/02/22-rdf-syntax-ns#"
   xmlns:svg="http://www.w3.org/2000/svg"
   xmlns="http://www.w3.org/2000/svg"
   xmlns:sodipodi="http://sodipodi.sourceforge.net/DTD/sodipodi-0.dtd"
   xmlns:inkscape="http://www.inkscape.org/namespaces/inkscape"
   id="svg3462"
   version="1.1"
   inkscape:version="0.91 r13725"
   width="205"
   height="177.5"
   viewBox="0 0 205 177.5"
   sodipodi:docname="4.svg">
  <metadata
     id="metadata3468">
    <rdf:RDF>
      <cc:Work
         rdf:about="">
        <dc:format>image/svg+xml</dc:format>
        <dc:type
           rdf:resource="http://purl.org/dc/dcmitype/StillImage" />
        <dc:title></dc:title>
      </cc:Work>
    </rdf:RDF>
  </metadata>
  <defs
     id="defs3466" />
  <sodipodi:namedview
     pagecolor="#ffffff"
     bordercolor="#666666"
     borderopacity="1"
     objecttolerance="10"
     gridtolerance="10"
     guidetolerance="10"
     inkscape:pageopacity="0"
     inkscape:pageshadow="2"
     inkscape:window-width="640"
     inkscape:window-height="480"
     id="namedview3464"
     showgrid="false"
     inkscape:zoom="1.3295775"
     inkscape:cx="102.5"
     inkscape:cy="88.750002"
     inkscape:window-x="84"
     inkscape:window-y="16"
     inkscape:window-maximized="0"
     inkscape:current-layer="svg3462" />
  <path
     style="fill:#cccccc"
     d="m 107.09988,154.29848 c -2.201,-1.34203 -4.87288,-4.12449 -5.9375,-6.18325 -8.378277,-16.20179 12.58596,-31.65339 25.46816,-18.7712 13.24185,13.24186 -3.55081,34.69795 -19.53066,24.95445 z m 15.97296,-6.20445 c 2.49375,-2.49374 3.65385,-4.90553 3.65385,-7.59615 0,-5.00844 -5.88705,-11.25 -10.61102,-11.25 -7.08017,0 -11.78881,4.52696 -11.84923,11.39205 -0.0894,10.1641 11.50202,14.75849 18.8064,7.4541 z m -10.89412,-5.72115 c -0.99024,-2.58053 0.35241,-5.625 2.48068,-5.625 0.96865,0 2.46143,0.84375 3.31729,1.875 1.24149,1.4959 1.24149,2.2541 0,3.75 -1.99657,2.40573 -4.8748,2.40573 -5.79797,0 z M 62.664193,128.92079 c -22.207419,-7.24769 -27.187498,-9.28972 -27.187498,-11.14796 0,-1.25491 0.899482,-2.27495 2.006076,-2.27495 1.103343,0 14.355192,3.97978 29.448562,8.84396 22.26278,7.17469 27.3669,9.2364 27.04207,10.92315 -0.22023,1.14355 -1.23771,2.18035 -2.26106,2.30399 -1.02336,0.12365 -14.09502,-3.76804 -29.04815,-8.64819 z m 2.1875,-14.11072 c -16.5,-5.72251 -30.424041,-10.58138 -30.942314,-10.79749 -0.92336,-0.38501 22.326204,-71.990439 23.968864,-73.820774 0.68759,-0.766154 30.77046,8.364349 32.50322,9.86511 0.29138,0.252362 -0.80417,4.712286 -2.43455,9.910941 -2.53619,8.08693 -2.70298,9.617449 -1.15478,10.596923 3.55277,2.247661 4.76743,1.070788 7.48735,-7.254399 1.51613,-4.640625 3.20006,-8.922438 3.74205,-9.51514 0.76137,-0.832606 29.917197,7.769739 33.915767,10.006755 0.45959,0.257116 -3.95326,14.822219 -9.80631,32.366895 l -10.64193,31.899409 -4.79638,2.44693 c -2.638,1.34581 -5.14898,3.01746 -5.57995,3.71479 -1.408547,2.27909 -5.871897,1.11958 -36.261037,-9.41995 z M 116.53644,85.526774 c 5.0516,-15.235588 8.9891,-27.864225 8.75,-28.063639 -1.49868,-1.249862 -23.61668,-7.86992 -24.00167,-7.18385 -0.26037,0.463977 -1.750007,4.781096 -3.310317,9.593596 -1.5603,4.8125 -2.9442,8.886719 -3.07533,9.05382 -0.19863,0.253134 -15.75704,-4.652189 -16.55533,-5.219638 -0.14185,-0.100825 1.1126,-4.625318 2.78766,-10.05442 1.67507,-5.429102 2.91613,-9.970875 2.75791,-10.092827 -0.76906,-0.592789 -20.46151,-6.811935 -21.56947,-6.811935 -1.32417,0 -22.814812,63.245983 -21.796576,64.146319 0.318108,0.28128 13.214606,4.70675 28.658886,9.83438 l 28.0805,9.32297 5.044487,-3.41185 c 4.96765,-3.35988 5.18443,-3.83388 14.22925,-31.112927 z m -52.326897,6.82009 c -4.31612,-6.545555 -7.62482,-12.107836 -7.35267,-12.360618 0.72724,-0.675483 24.69075,-8.238365 26.10383,-8.238365 0.76827,0 0.76286,1.160594 -0.0149,3.206375 -1.85218,4.871616 -1.75507,4.985516 6.34066,7.436706 4.15784,1.258894 7.8551,2.766841 8.21612,3.350995 0.68463,1.107747 -2.94382,13.423857 -4.4434,15.082323 -0.47314,0.52327 -4.1483,-0.17985 -8.16703,-1.562496 -4.01873,-1.38265 -7.7262,-2.5139 -8.23881,-2.5139 -0.51262,0 -1.5203,1.6875 -2.23929,3.749996 -0.71899,2.0625 -1.54345,3.75 -1.83212,3.75 -0.28867,0 -4.05623,-5.355456 -8.37234,-11.901016 z m 27.13094,-2.42344 c -0.23096,-0.7153 -4.13797,-2.61938 -8.68225,-4.231286 -5.79639,-2.056043 -8.06512,-3.444651 -7.60158,-4.652637 0.54089,-1.409529 -0.37775,-1.368039 -5.06396,0.228711 l -5.72471,1.950605 3.30264,4.329977 c 1.98528,2.60284 3.63653,3.78972 4.13973,2.97553 0.56918,-0.92096 3.40619,-0.40935 8.86422,1.59852 7.16812,2.63698 8.19613,2.74689 9.60647,1.02706 0.86864,-1.05926 1.39039,-2.51118 1.15944,-3.22648 z m 30.073707,29.712796 c -1.20313,-0.31441 -2.14654,-0.95228 -2.09646,-1.4175 0.0501,-0.46521 4.40943,-13.50209 9.6875,-28.970836 l 9.59646,-28.125003 19.375,-3.370955 c 10.65625,-1.854025 20.07812,-3.137304 20.9375,-2.85173 2.32197,0.7716 1.89069,4.085696 -0.625,4.802564 -1.20313,0.342841 -8.65625,1.796537 -16.5625,3.230436 -7.90625,1.433899 -15.54133,2.86459 -16.96683,3.179315 -2.16586,0.478184 -4.0099,4.99422 -11.22046,27.478803 -4.74575,14.798606 -8.92317,26.841316 -9.28317,26.761566 -0.36,-0.0798 -1.63892,-0.40225 -2.84204,-0.71666 z"
     id="path3472"
     inkscape:connector-curvature="0" />
</svg>
