<?xml version="1.0" encoding="UTF-8" standalone="no"?>
<!-- Created with Inkscape (http://www.inkscape.org/) -->

<svg
   xmlns:dc="http://purl.org/dc/elements/1.1/"
   xmlns:cc="http://creativecommons.org/ns#"
   xmlns:rdf="http://www.w3.org/1999/02/22-rdf-syntax-ns#"
   xmlns:svg="http://www.w3.org/2000/svg"
   xmlns="http://www.w3.org/2000/svg"
   xmlns:sodipodi="http://sodipodi.sourceforge.net/DTD/sodipodi-0.dtd"
   xmlns:inkscape="http://www.inkscape.org/namespaces/inkscape"
   id="svg3474"
   version="1.1"
   inkscape:version="0.91 r13725"
   width="196.25"
   height="160"
   viewBox="0 0 196.25 160"
   sodipodi:docname="5.svg">
  <metadata
     id="metadata3480">
    <rdf:RDF>
      <cc:Work
         rdf:about="">
        <dc:format>image/svg+xml</dc:format>
        <dc:type
           rdf:resource="http://purl.org/dc/dcmitype/StillImage" />
        <dc:title></dc:title>
      </cc:Work>
    </rdf:RDF>
  </metadata>
  <defs
     id="defs3478" />
  <sodipodi:namedview
     pagecolor="#ffffff"
     bordercolor="#666666"
     borderopacity="1"
     objecttolerance="10"
     gridtolerance="10"
     guidetolerance="10"
     inkscape:pageopacity="0"
     inkscape:pageshadow="2"
     inkscape:window-width="640"
     inkscape:window-height="480"
     id="namedview3476"
     showgrid="false"
     inkscape:zoom="1.475"
     inkscape:cx="98.125"
     inkscape:cy="80"
     inkscape:window-x="128"
     inkscape:window-y="71"
     inkscape:window-maximized="0"
     inkscape:current-layer="svg3474" />
  <path
     style="fill:#cccccc"
     d="m 121.25705,128.65174 c -10.18992,-2.57138 -18.39688,-9.05009 -18.39688,-14.52283 0,-2.3053 -0.67669,-2.94247 -3.124999,-2.94247 -2.20962,0 -3.125,0.67884 -3.125,2.31747 0,1.27461 -1.32897,3.75146 -2.95326,5.50409 -11.69007,12.6138 -45.47629,12.36235 -54.733192,-0.40733 -1.888033,-2.6045 -2.225788,-6.16821 -2.361274,-24.91423 -0.08696,-12.03125 -0.11179,-22.816218 -0.05519,-23.966594 0.0566,-1.150376 1.551028,-3.81258 3.320946,-5.91601 3.61955,-4.301585 16.1901,-8.867396 24.41364,-8.867396 l 4.86833,0 0,-6.706426 c 0,-8.179455 2.47529,-11.787539 10.90964,-15.90234 4.99991,-2.439269 7.98838,-2.918847 18.46536,-2.963253 11.116899,-0.04712 13.261789,0.321159 19.384819,3.328368 10.14704,4.983528 11.24018,7.543301 11.24018,26.320946 l 0,15.566564 7.1875,0.761329 c 10.11397,1.071311 18.05031,4.069219 22.63274,8.549386 l 3.92976,3.84207 0,14.683106 c 0,17.23381 -0.95899,19.224 -11.43487,23.7306 -7.38651,3.17759 -22.52236,4.43436 -30.16825,2.50495 z m 29.32184,-7.26863 c 5.0788,-2.45859 8.29205,-5.85256 6.87888,-7.26574 -0.25369,-0.25369 -3.22006,0.79746 -6.59193,2.33588 -4.96141,2.26365 -8.39551,2.80049 -18.00567,2.81477 -10.28781,0.0153 -12.83567,-0.43085 -19.0625,-3.33782 -7.46558,-3.48527 -8.72191,-3.13629 -5,1.3889 6.38555,7.7637 29.49524,10.01156 41.78122,4.06402 z m -70.892719,0.50562 c 6.05649,-1.82274 11.924,-6.17959 11.924,-8.85405 0,-0.89511 -2.55438,-0.20182 -6.55971,1.7804 -5.7568,2.84901 -8.09005,3.24337 -19.0625,3.222 -10.24336,-0.02 -13.6045,-0.52823 -18.59919,-2.81251 -7.41668,-3.39195 -7.44038,-3.39318 -5.78553,-0.30107 1.35681,2.53522 6.86159,5.88024 12.49884,7.59501 5.29162,1.60964 19.28785,1.26512 25.58409,-0.62978 z m 71.337209,-10.77 c 4.12548,-2.1204 6.34446,-4.10324 6.6068,-5.90371 l 0.39501,-2.711 -6.02001,2.77871 c -5.066,2.33836 -8.19902,2.77871 -19.77001,2.77871 -11.9869,0 -14.44673,-0.37182 -19.18363,-2.8997 -2.9885,-1.59484 -5.70595,-2.62739 -6.03878,-2.29456 -1.27604,1.27604 2.34754,5.88441 6.18887,7.87084 6.85354,3.5441 9.93502,4.10851 20.94675,3.83666 8.64327,-0.21337 11.83992,-0.86804 16.875,-3.45595 z m -70.418999,0.62908 c 5.68225,-1.93614 12.15231,-7.33151 10.62426,-8.85957 -0.44443,-0.44443 -1.52478,-0.21856 -2.40076,0.50192 -0.87599,0.72049 -4.91991,2.2738 -8.98649,3.45179 -9.71609,2.81454 -24.00854,2.06282 -32.48689,-1.70868 -3.37187,-1.49993 -6.35385,-2.50398 -6.62661,-2.23122 -1.21998,1.21998 5.73097,7.19461 10.25728,8.81655 6.76622,2.42459 22.5435,2.44015 29.61921,0.0292 z m 22.255789,-7.43637 c 0,-1.16667 -1.18055,-1.875 -3.124999,-1.875 -1.94445,0 -3.125,0.70833 -3.125,1.875 0,1.16667 1.18055,1.875 3.125,1.875 1.944449,0 3.124999,-0.70833 3.124999,-1.875 z M 75.927031,103.0291 c 6.31562,-1.02415 13.89061,-4.87588 14.93339,-7.59332 1.21392,-3.16342 0.49939,-3.18278 -5.56846,-0.15088 -4.7305,2.36367 -7.60141,2.77654 -19.30679,2.77654 -11.9869,0 -14.44673,-0.37182 -19.18363,-2.8997 -2.9885,-1.59484 -5.64744,-2.6859 -5.90875,-2.42459 -0.99981,0.99981 3.53362,6.04863 7.07603,7.88048 3.93507,2.0349 16.33387,4.19965 20.51635,3.58202 1.375,-0.20304 4.72383,-0.72979 7.44186,-1.17055 z m 69.185789,-1.26001 c 3.55101,-1.05454 8.00104,-3.24599 9.88894,-4.86988 2.98327,-2.56611 3.27226,-3.40403 2.20797,-6.40214 -1.94328,-5.474231 -9.3886,-8.601549 -21.74133,-9.132181 -20.54535,-0.882563 -33.87453,7.530975 -24.79573,15.651361 7.041,6.2977 22.1956,8.38908 34.44015,4.75284 z m -15.69015,-4.70347 c -3.48324,-1.56199 -3.72641,-3.90975 -0.3125,-3.01699 1.54569,0.4042 2.5,0.0384 2.5,-0.95843 0,-0.8867 -1.125,-1.906376 -2.5,-2.265946 -3.49665,-0.914393 -3.11985,-4.464026 0.625,-5.887814 3.99409,-1.518547 10.51055,0.614447 8.38152,2.743474 -1.0341,1.034096 -1.90505,0.981892 -3.32855,-0.199507 -1.59292,-1.322007 -1.92797,-1.271181 -1.92797,0.292467 0,1.0409 1.40625,2.245492 3.125,2.676871 4.312,1.082245 4.12201,5.146265 -0.3125,6.684615 -2.22934,0.77336 -4.426,0.7492 -6.25,-0.0687 z m 5.9375,-3.37918 c 0,-0.6875 -0.5625,-1.25 -1.25,-1.25 -0.6875,0 -1.25,0.5625 -1.25,1.25 0,0.6875 0.5625,1.25 1.25,1.25 0.6875,0 1.25,-0.5625 1.25,-1.25 z m -32.73361,1.5625 c -0.22931,-1.20312 -1.67681,-2.36725 -3.216659,-2.58694 -2.12643,-0.30338 -2.79973,0.22269 -2.79973,2.1875 0,1.94573 0.7973,2.58694 3.21666,2.58694 2.388969,0 3.109369,-0.56287 2.799729,-2.1875 z M 80.718431,92.17925 c 5.35615,-1.602285 10.89174,-6.184535 10.89174,-9.015967 0,-1.584009 -0.66667,-1.499184 -4.0895,0.520335 -2.24923,1.327074 -8.11292,3.102802 -13.03043,3.946062 -10.33507,1.772269 -21.20546,0.333571 -29.28025,-3.875245 -5.5772,-2.906999 -6.757207,-0.99107 -2.03732,3.307909 8.13705,7.411406 23.07174,9.446776 37.54576,5.116906 z m 24.016739,-7.24281 c 2.22798,-2.461889 2.18329,-2.5 -2.93126,-2.5 -4.360409,0 -5.193739,0.401124 -5.193739,2.5 0,1.789271 0.83333,2.5 2.93126,2.5 1.612199,0 3.949379,-1.125 5.193739,-2.5 z M 81.109331,80.441128 c 2.81829,-0.999682 6.387,-3.161842 7.93048,-4.8048 4.19001,-4.460058 2.47467,-7.808074 -5.99138,-11.693995 -15.48337,-7.106881 -41.43826,-2.113537 -41.43826,7.972116 0,9.173854 23.42109,14.229762 39.49916,8.526679 z m -15.74916,-1.850494 c 0,-0.634807 -0.77488,-1.154194 -1.72195,-1.154194 -0.94707,0 -2.42219,-0.84375 -3.27805,-1.875 -1.25918,-1.517211 -1.21682,-1.875 0.22194,-1.875 0.97793,0 2.45306,0.675 3.27806,1.5 1.16666,1.166666 1.5,1.046496 1.5,-0.540765 0,-1.122421 -1.125,-2.397827 -2.5,-2.834235 -3.35853,-1.065956 -3.17354,-4.916844 0.3125,-6.505109 3.02316,-1.377374 7.58201,-0.265371 9.12103,2.224816 0.68901,1.114838 0.0568,1.298402 -2.37209,0.688782 -4.19463,-1.052786 -4.3244,0.853689 -0.18644,2.739069 4.18933,1.908788 3.94281,4.636359 -0.625,6.915083 -2.0625,1.028912 -3.75,1.35136 -3.75,0.716553 z m 3.125,-4.904194 c -0.4249,-0.6875 -1.0206,-1.25 -1.32377,-1.25 -0.30318,0 -0.55123,0.5625 -0.55123,1.25 0,0.6875 0.5957,1.25 1.32377,1.25 0.72807,0 0.97613,-0.5625 0.55123,-1.25 z m 43.504129,2.415878 c 4.98502,-1.384298 13.33041,-7.873012 11.92865,-9.274774 -0.44854,-0.448529 -3.24411,0.423467 -6.21238,1.937769 -3.08897,1.575873 -8.75351,3.022714 -13.24614,3.383339 -6.598199,0.529641 -7.849259,1.00125 -7.849259,2.958925 0,1.907599 0.96097,2.327602 5.312499,2.321892 2.92188,-0.0039 7.45186,-0.601053 10.06663,-1.327152 z m 2.10381,-10.761858 c 5.06838,-2.062432 10.01706,-6.373715 10.01706,-8.726849 0,-1.202179 -1.26205,-0.979227 -4.75096,0.839294 -6.17323,3.217667 -18.26771,5.42 -24.389219,4.441131 l -4.83091,-0.772493 3.54804,3.722615 c 3.267,3.427738 4.04313,3.66507 9.798049,2.996128 3.4375,-0.399567 8.21107,-1.52449 10.60794,-2.499826 z m -0.83769,-10.965035 c 18.29581,-6.525105 8.81199,-19.956263 -14.145249,-20.03275 -22.44702,-0.07479 -32.94513,11.427496 -17.14422,18.784113 5.23163,2.435752 8.49428,3.026804 16.51922,2.992575 5.499999,-0.02346 12.146609,-0.808232 14.770249,-1.743938 z M 97.860171,52.340634 c 0,-0.634807 -0.81055,-1.154194 -1.80123,-1.154194 -2.01165,0 -3.84306,-2.272381 -2.72915,-3.38629 0.39598,-0.395979 1.57731,-0.0084 2.62517,0.86122 1.56803,1.30135 1.90521,1.237171 1.90521,-0.36264 0,-1.069101 -1.125,-2.300882 -2.5,-2.73729 -2.97666,-0.944755 -3.32671,-5.040289 -0.52277,-6.116264 3.57445,-1.371642 7.687189,-0.794509 9.432209,1.323607 1.54659,1.877246 1.37699,1.998016 -1.72194,1.226184 -4.366159,-1.087453 -4.620199,1.303689 -0.3125,2.941473 4.20436,1.598496 3.94166,4.409492 -0.625,6.687641 -2.062499,1.028912 -3.749999,1.35136 -3.749999,0.716553 z m 3.749999,-3.654194 c 0,-0.6875 -0.5957,-1.25 -1.32377,-1.25 -0.728069,0 -0.976129,0.5625 -0.551229,1.25 0.424899,0.6875 1.020589,1.25 1.323769,1.25 0.30318,0 0.55123,-0.5625 0.55123,-1.25 z"
     id="path3484"
     inkscape:connector-curvature="0" />
</svg>
