<svg id="Layer_1" xmlns="http://www.w3.org/2000/svg" width="130" height="18" viewBox="0 0 130 18"><style>.st0{fill:#e4dcc9}</style><path class="st0" d="M113.5 2.7c-.4 0-.7-.1-1.1-.1.2 0 .4.1.5.2.3.1.4 0 .6-.1zm-2.1-.2h-.4.4zm-1.8.1h1c-.4 0-.7-.1-1 0zm1.5.2c-.1-.1-.2-.2 0-.2-.2 0-.4 0-.6.1.2 0 .4 0 .6.1zm0 0c.1.1.3.2.3.2-.1-.1-.2-.1-.3-.2zm-.6 2c-.2.1-.1-.5-.5-.4-.9.1-1.6.4-2.5.4-.4.1-.9-.5-1.3-.4-.9.1-3.1.9-1.8.9 2-.1 3.3-.2 5.1-.2 1.5-.2 2.9-.4 4.3-.6.4 0 .8.1 1.2.1-.5-.1-1-.2-1.6-.3-.8-.3-1.7.4-2.9.5zM105.6 3c-2.5 0-4.9-.1-7.1-.1-.2.1-.3.2-.5.2-.3-.1-.5-.1-.7-.2h-1c-.1 0-.2 0-.4.1s-.1.2 0 .2c.1.1.3.1.4.2-.1 0-.2-.1-.4-.2s-.3-.1-.5-.2c-.3 0-.6.1-1 0 .4-.1.7-.1 1 0h.6c.1 0 .1 0 .2-.1h-2.3c-.2 0-.3 0-.5.1-.6.1-1.1.2-1.4-.1h-.4l.1.1c-.1 0-.1 0-.2-.1h-1.7c-.4.1-.8.3-1.1.4 0 0-.3-.2-.4-.3-.3 0-.5.1-.8.2.3.2.6.3.9.5.4.3.8-.6 1.3-.1-.5-.5-.9.4-1.3.1-.3-.1-.6-.3-.9-.5-.5.1-1.3 0-1.8-.2.7-.3 1.3-.1 1.8.2.3-.1.5-.2.7-.3.1.1.4.3.4.3.4-.1.8-.2 1.1-.4h-3.4c-7.5 0-14.5.5-22.3 1-4.2.2-8.3.5-12.3.7-4 .2-7.8.9-11.6 1.5s-7.6 1.3-11.8 1.6c-.8.1-1.7.2-2.8.5-1 .3-2.1.5-3.2.9-2.2.7-4.3 1.6-5.7 2.3-1.8 1.3-1.8 2.3-1.4 3 .4.7 1.2 1 1.3 1 1.5.4 2.6.3 3.9-.1.7-.2 1.4-.4 2.3-.6.9-.2 1.9-.4 3.2-.4-1.7.1-1.2-.4.1-.8.7-.2 1.6-.5 2.5-.6.9-.1 1.9-.1 2.8 0 2.5.5 5.2.1 8-.6 2.8-.6 5.8-1.5 8.6-1.6 1.4-.1 2.9-.4 4.6-.6 8.8-.4 16.8-2.2 26-2.6 2.4-.2 4.6-.8 6.6-1.2 1.5-.2 3.1.1 4.3 0 1.9-.1 3.6-.3 5.2-.6-1.8.1-3.1.3-5 .5-1.3.1.9-.8 1.8-1 .4-.1 1 .5 1.3.3.8 0 1.6-.3 2.4-.5.4-.1.3.4.5.4 1.2-.1 2.1-.9 2.9-.7.6.1 1.1.2 1.6.3.3 0 .6.1 1 0 .2 0 .4-.1.6-.1-.2-.2-.2-.4-.3-.6.3 0 .8.2 1.1.2-.3 0-.8-.2-1.1-.2.1.2.1.4.3.6 1.6-.3 3.4-.6 5.1-.8v-.1c-1 0-1.9 0-3-.4.4.1.4.3-.1.3-.1-.1-.3-.2-.4-.3.9-.2 1.8-.3 2.6.1 0 0 .4-.1.6-.2.3.1.3.3.3.4h.6c-.6-.4-1.8-.8-1.8-.8z"/><path class="st0" d="M95.4 3c.1 0 .3 0 .5-.1H94c.3.3.8.2 1.4.1z"/></svg>